<svg version="1.1" id="Layer_1" xmlns="http://www.w3.org/2000/svg" xmlns:xlink="http://www.w3.org/1999/xlink" x="0px" y="0px"
	 width="100%" viewBox="0 0 612 612" enable-background="new 0 0 612 612" xml:space="preserve">
<path fill="#FFFFFF" opacity="1.000000" stroke="none" 
	d="
M408.000000,613.000000 
	C272.000031,613.000000 136.500046,613.000000 1.000055,613.000000 
	C1.000036,409.000061 1.000036,205.000122 1.000018,1.000137 
	C204.999893,1.000091 408.999786,1.000091 612.999756,1.000046 
	C612.999878,204.999863 612.999878,408.999725 612.999939,612.999756 
	C544.833313,613.000000 476.666656,613.000000 408.000000,613.000000 
M117.915451,325.902405 
	C117.962547,326.600708 118.009644,327.298981 117.696495,328.816956 
	C117.823402,330.877991 117.950317,332.939026 118.004265,335.788116 
	C122.548111,355.527435 131.961792,372.897308 143.938599,389.787231 
	C144.671982,391.410370 145.463089,393.010193 146.129440,394.660400 
	C150.724075,406.038849 149.283493,417.488556 146.577606,428.980011 
	C145.510971,433.509796 144.712006,438.102570 143.577408,443.726105 
	C151.849182,439.460236 158.770432,435.492340 166.016296,432.249847 
	C176.238129,427.675598 186.820801,426.456543 197.802231,429.949005 
	C206.108002,432.590515 214.587799,434.684875 223.263458,437.271362 
	C223.263458,437.271362 223.622803,437.185547 224.311447,437.629486 
	C228.197632,438.102905 232.083832,438.576294 236.699387,439.430725 
	C246.133713,439.366150 255.568024,439.301575 265.815063,439.337311 
	C270.498474,438.543121 275.181915,437.748932 280.478241,437.036560 
	C280.667145,436.954102 280.856049,436.871643 281.785034,436.830566 
	C283.835114,436.213928 285.885223,435.597321 288.542023,435.020447 
	C288.714844,434.914551 288.887634,434.808655 289.606598,434.681915 
	C289.909332,434.493317 290.212067,434.304688 291.134857,433.770538 
	C294.481812,432.634491 297.828735,431.498413 301.946594,430.310303 
	C305.827301,428.611023 309.708008,426.911774 314.073608,425.693665 
	C318.720673,428.119324 323.367706,430.544983 328.547852,433.426086 
	C333.583221,435.354858 338.618591,437.283661 344.269501,439.642212 
	C369.596191,447.565887 394.887970,447.170288 419.751770,438.157318 
	C433.857941,433.043976 447.024780,433.382263 460.039612,440.891174 
	C464.333771,443.368683 468.822784,445.508392 474.133911,448.277649 
	C473.074677,443.133026 472.449127,438.884491 471.310455,434.778229 
	C466.861023,418.732605 470.194031,404.736115 479.774567,390.984741 
	C486.016693,382.025055 489.400330,371.073883 494.626953,360.541351 
	C496.153717,351.720001 497.680481,342.898651 499.601898,333.463409 
	C499.624573,331.996124 499.647278,330.528839 499.887146,328.180359 
	C499.806152,325.770996 499.725159,323.361633 499.740692,320.503693 
	C499.740692,320.503693 499.554077,320.084534 499.739532,319.406921 
	C499.646088,318.954132 499.552612,318.501312 499.689331,317.216522 
	C497.389923,306.495331 495.090515,295.774170 492.801239,284.316742 
	C488.873657,276.535004 484.946075,268.753265 481.005188,260.996796 
	C481.005188,260.996796 481.025146,260.985016 480.963257,260.312317 
	C480.356018,259.688019 479.748749,259.063690 479.211487,257.871399 
	C478.980286,257.584839 478.749084,257.298279 478.469543,256.588989 
	C478.167480,256.308655 477.865417,256.028351 477.376617,255.061127 
	C474.876282,252.055756 472.375916,249.050400 469.706451,245.400238 
	C463.575714,239.892517 457.445007,234.384796 450.957275,228.276855 
	C446.675171,225.476318 442.556549,222.370514 438.063110,219.964737 
	C433.917389,217.745117 429.369446,216.276718 424.388062,214.017776 
	C421.370728,212.715118 418.432190,211.172852 415.322784,210.150208 
	C399.611572,204.983047 383.440613,203.915787 367.092468,205.453522 
	C362.069092,205.926010 357.136230,207.360504 351.627655,208.231155 
	C351.445496,208.246384 351.263367,208.261612 350.460846,207.953629 
	C334.539093,192.566055 317.318726,179.241714 295.279816,173.764374 
	C285.185455,171.255615 275.029205,168.996109 264.456573,166.347610 
	C264.285126,166.379364 264.113678,166.411133 263.160889,166.234985 
	C259.769562,166.172287 256.378265,166.109589 252.201202,165.868256 
	C251.134720,165.931183 250.068253,165.994110 248.114670,165.904556 
	C244.709747,166.151459 241.304825,166.398361 237.301605,166.646179 
	C237.072037,166.918564 236.842453,167.190964 236.540604,167.489883 
	C236.540604,167.489883 236.472763,167.526260 235.922150,167.012634 
	C223.209930,167.134872 211.596466,171.672775 199.193909,175.987564 
	C196.467712,177.378693 193.741516,178.769821 190.460480,180.229614 
	C190.003906,180.496765 189.547333,180.763901 189.029694,180.998688 
	C189.029694,180.998688 189.021469,181.067276 188.321762,181.140625 
	C185.498703,182.742432 182.675644,184.344254 179.201050,186.088379 
	C178.706985,187.020279 178.212921,187.952179 177.337387,188.847794 
	C177.337387,188.847794 176.995911,189.021667 176.263474,188.897018 
	C166.585281,193.599777 159.043655,200.926743 151.267822,209.014465 
	C145.556305,216.692795 139.844788,224.371124 133.566254,232.431168 
	C129.375244,242.051788 125.184235,251.672424 120.415398,261.723053 
	C119.805794,264.143585 119.196182,266.564087 118.190361,269.594940 
	C118.152351,270.072510 118.114342,270.550079 117.666954,271.666779 
	C114.584930,284.618896 113.312668,297.721802 114.259018,311.923187 
	C115.030968,315.330170 115.802925,318.737183 116.635521,322.780792 
	C116.746643,323.187164 116.857758,323.593506 116.976799,324.577667 
	C117.291054,324.785858 117.605309,324.994080 117.915451,325.902405 
z"/>
<path fill="#02A3FE" opacity="1.000000" stroke="none" 
	d="
M134.133270,232.049454 
	C139.844788,224.371124 145.556305,216.692795 151.615784,209.267609 
	C153.068954,211.227798 153.804779,213.450653 155.343384,214.552429 
	C161.952209,219.284912 166.980865,226.844498 176.394440,226.785263 
	C176.799866,226.782700 177.435150,227.227905 177.581314,227.610504 
	C179.306366,232.125946 183.672012,233.087814 187.350449,233.420670 
	C194.019073,234.024139 197.370163,239.220428 200.911743,243.107178 
	C203.969528,246.463028 207.020493,249.003784 210.997345,249.310043 
	C217.649445,249.822342 221.379333,254.794022 224.660095,258.800110 
	C228.365875,263.325256 232.597870,264.718994 237.515305,266.057617 
	C239.156860,266.504517 241.115295,267.237335 242.068466,268.492737 
	C244.985123,272.334229 251.215149,273.852173 250.585861,280.308533 
	C250.555756,280.617340 252.144745,281.083984 253.011154,281.491943 
	C251.781693,281.951385 250.589798,282.396790 249.397919,282.842194 
	C253.743027,283.618561 258.378510,282.439148 261.819031,283.961121 
	C265.047791,285.389374 270.183105,287.490570 268.937714,292.734558 
	C271.437988,293.820587 273.871857,295.078613 276.437103,295.949951 
	C281.679657,297.730713 288.204437,296.367767 291.712799,302.456116 
	C292.064362,303.066254 293.869476,302.838745 295.033203,303.329712 
	C296.278961,306.568207 297.300659,306.089142 298.749420,303.266296 
	C297.147827,303.152557 296.073914,303.076263 295.003906,302.642090 
	C295.693909,300.738403 296.380066,299.192657 297.331024,297.050323 
	C297.954651,298.581726 298.286438,299.396454 298.090424,298.915131 
	C300.313721,297.270447 301.789673,296.178589 303.224091,295.502869 
	C302.762787,299.606506 302.342987,303.294067 301.682861,306.772827 
	C301.163727,305.670624 300.884979,304.777222 300.538177,303.665741 
	C296.969452,312.507416 296.962952,312.783142 299.519989,314.228424 
	C300.489624,312.412628 301.442291,310.628571 302.600281,309.115906 
	C304.372711,314.870056 308.483002,318.119568 313.054871,321.339478 
	C314.087280,321.705566 315.072662,321.737274 316.390961,321.740784 
	C317.149231,321.835968 317.574646,321.959290 318.200806,322.341675 
	C318.448975,323.370941 318.496307,324.141144 318.543640,324.911377 
	C317.019409,324.995331 315.495148,325.079285 313.936371,325.165161 
	C314.352020,326.275452 314.674164,327.136017 314.756836,328.010986 
	C314.242950,328.143036 313.968567,328.260651 313.694214,328.378235 
	C313.781281,328.501373 313.868347,328.624512 313.955383,328.747620 
	C314.304260,328.499420 314.653168,328.251190 315.390808,328.001434 
	C318.404388,328.221497 321.029236,328.443085 323.654083,328.664703 
	C323.660797,329.065643 323.667511,329.466614 323.674194,329.867554 
	C324.898407,328.875336 326.122589,327.883118 327.256042,326.964417 
	C330.232391,328.891693 334.180573,330.038361 335.298157,332.480438 
	C337.307800,336.871796 340.631866,339.057312 344.482361,338.710297 
	C352.312225,338.004547 354.178314,345.532654 359.313110,348.480499 
	C363.180328,350.700684 365.364105,355.773682 368.519073,359.382935 
	C369.128845,360.080536 370.772125,360.079346 371.926514,360.040344 
	C373.150299,359.998962 374.359589,359.528229 375.554626,359.629059 
	C371.797058,366.705292 368.060089,373.397491 364.036438,380.166687 
	C363.546509,380.566803 363.343231,380.889893 363.197021,381.195374 
	C363.254028,381.177704 363.280945,381.294006 362.924377,381.167084 
	C361.912689,379.739349 361.257568,378.438507 360.583221,377.099518 
	C359.151733,377.023651 356.751740,377.495392 356.315399,376.776001 
	C353.510376,372.151642 346.790344,370.886566 345.143738,366.990204 
	C342.917847,361.723053 339.985596,361.849640 336.031738,362.022736 
	C331.781799,362.208832 328.380005,361.497040 327.786835,356.311035 
	C327.693329,355.493256 326.418427,354.453522 325.485657,354.155701 
	C322.675629,353.258545 319.279633,353.383240 317.000000,351.817108 
	C312.938324,349.026581 309.262878,345.674194 304.810547,343.402710 
	C304.373352,343.179657 304.475342,342.052551 304.045746,341.633514 
	C302.715088,340.335571 301.364105,338.996948 299.811737,337.999878 
	C296.057343,335.588562 289.713074,337.473297 288.356506,331.065063 
	C282.747589,330.655121 281.320404,324.485016 277.862976,322.754181 
	C273.249573,320.444611 269.978119,319.247314 270.372284,313.421783 
	C269.683716,315.829803 268.995117,318.237793 268.356934,320.469513 
	C265.585480,320.240387 263.114532,320.036102 260.845856,319.551727 
	C272.790863,311.305145 271.481537,293.672119 258.340668,287.976532 
	C250.258179,284.473389 243.125443,287.086304 236.871704,292.784088 
	C236.147995,292.028381 235.579834,291.518585 235.227997,290.897705 
	C235.714371,290.586426 235.901306,290.326477 236.144104,289.950714 
	C236.186417,289.928101 236.089783,289.961487 235.775467,290.103577 
	C235.286423,290.410767 235.097519,290.669434 234.563629,290.989868 
	C230.019363,290.659027 225.800110,290.759766 221.826904,289.820099 
	C219.688675,289.314362 217.934952,287.069672 216.078247,285.524872 
	C214.749008,284.418915 213.699112,282.894897 212.241165,282.041687 
	C208.261810,279.712830 201.884811,281.496643 200.321091,275.022614 
	C194.987122,274.510132 192.676025,270.960815 190.206360,266.602051 
	C189.127731,264.698395 184.222153,265.322327 181.546631,263.883362 
	C177.098709,261.491119 173.001266,258.425751 168.878296,255.473434 
	C168.240189,255.016541 168.433517,253.534592 167.915634,252.739487 
	C167.262039,251.735992 166.424622,250.506592 165.399704,250.157104 
	C162.613800,249.207138 159.253922,249.337784 156.913101,247.819611 
	C152.913055,245.225342 149.603683,241.589188 145.021088,239.769638 
	C144.571854,239.591278 144.382736,238.644058 144.161850,238.022125 
	C142.164413,232.398178 140.904892,231.860382 135.709503,234.473495 
	C135.185913,233.668274 134.659592,232.858871 134.133270,232.049454 
z"/>
<path fill="#51BC49" opacity="1.000000" stroke="none" 
	d="
M494.064514,361.014893 
	C489.400330,371.073883 486.016693,382.025055 479.774567,390.984741 
	C470.194031,404.736115 466.861023,418.732605 471.310455,434.778229 
	C472.449127,438.884491 473.074677,443.133026 474.133911,448.277649 
	C468.822784,445.508392 464.333771,443.368683 460.039612,440.891174 
	C447.024780,433.382263 433.857941,433.043976 419.751770,438.157318 
	C394.887970,447.170288 369.596191,447.565887 344.302490,439.210876 
	C346.538513,437.920959 348.741547,437.062408 350.944611,436.203888 
	C352.576050,433.484192 354.659760,431.012787 357.296661,429.516327 
	C360.949432,427.443268 365.773682,426.943817 368.748016,424.270477 
	C374.538300,419.066162 384.245636,419.857544 387.783295,411.471191 
	C387.957489,411.058319 389.319214,411.171692 390.117310,410.992554 
	C395.061920,409.882629 401.101166,410.903137 403.158264,404.135254 
	C403.333984,403.557159 404.777313,403.225006 405.685608,403.032074 
	C410.810394,401.943329 416.994293,403.024780 419.188965,396.083160 
	C419.370758,395.508179 420.884064,395.404785 421.727020,394.979706 
	C426.139648,392.754791 432.674713,394.451508 434.784973,387.932892 
	C434.866577,387.680878 435.275604,387.438507 435.573975,387.367249 
	C441.584839,385.931183 447.292297,384.687775 451.959076,379.510895 
	C455.041840,376.091156 460.495514,374.747070 464.983612,372.682190 
	C467.196777,371.663971 470.097687,371.694366 471.869324,370.248108 
	C476.761749,366.254303 481.494934,362.453430 488.412048,363.790039 
	C488.824463,363.869751 489.355286,363.011017 489.907898,362.754730 
	C491.269562,362.123291 492.676056,361.588501 494.064514,361.014893 
z"/>
<path fill="#01B4FE" opacity="1.000000" stroke="none" 
	d="
M199.923157,175.970215 
	C211.596466,171.672775 223.209930,167.134872 236.500092,167.605469 
	C241.050354,167.800552 245.022675,167.402771 248.856125,167.336060 
	C248.555405,175.236115 248.616669,175.276947 255.738907,176.046539 
	C257.373779,176.223206 258.977600,176.921265 260.599213,176.933990 
	C263.372559,176.955750 264.682526,177.832794 265.215576,180.845474 
	C265.492310,182.409500 267.618652,184.449020 269.240112,184.817139 
	C273.563080,185.798569 277.942749,185.976303 280.417725,190.673172 
	C281.039459,191.853027 283.167816,192.710419 284.681702,192.845963 
	C287.437988,193.092773 288.634308,193.958908 289.246735,196.894943 
	C289.582672,198.505432 291.992432,200.194855 293.822937,200.841705 
	C295.746094,201.521301 298.098572,201.085846 300.255615,200.979156 
	C303.188721,200.834076 304.762878,201.658493 305.234589,205.015564 
	C305.443939,206.505585 307.938721,207.655029 309.356750,209.000504 
	C310.602020,210.182022 312.541199,211.254517 312.856445,212.668823 
	C313.590668,215.962646 315.378876,217.069656 318.460999,217.014450 
	C321.119659,216.966843 325.300690,216.016663 326.164764,217.277481 
	C329.128662,221.602203 333.738861,224.210907 336.598907,228.100174 
	C338.333527,230.459000 339.217102,231.584381 342.089233,232.152054 
	C346.445190,233.012985 353.166656,230.489655 353.511871,238.674789 
	C353.533417,239.185837 354.268127,239.996674 354.787598,240.104019 
	C358.506470,240.872482 361.695923,242.004272 361.666229,246.738678 
	C361.663696,247.144363 363.247986,247.833237 364.142822,247.924835 
	C368.436157,248.364319 372.745911,248.643555 377.227722,249.011292 
	C377.405579,249.042862 377.765137,249.077988 377.831177,249.401123 
	C378.214661,250.283737 378.532166,250.843185 378.839813,251.574280 
	C378.829956,251.745941 379.045197,252.014099 379.041443,252.319473 
	C379.339661,253.128006 379.641632,253.631180 379.964050,254.371841 
	C379.984436,254.609344 380.279755,254.983612 380.253357,255.356110 
	C381.915436,261.485077 383.603912,267.241547 385.300293,273.399231 
	C386.140991,279.532196 386.973755,285.263947 387.575989,291.205322 
	C386.708893,291.819885 385.646484,292.693268 385.499481,292.559631 
	C383.231171,290.497528 381.143951,288.236603 378.880890,286.168152 
	C377.575836,284.975311 376.123810,283.869385 374.567413,283.047028 
	C373.136444,282.290955 371.352936,282.191772 369.941284,281.411438 
	C365.365051,278.881836 360.876282,276.192352 356.389526,273.504822 
	C355.870728,273.194092 355.228851,272.508484 355.229828,271.997833 
	C355.243317,264.862976 350.466675,264.801086 345.270905,264.964478 
	C338.634918,265.173187 337.279083,256.838959 331.198822,255.926636 
	C330.996155,255.896225 331.329620,254.078064 330.877472,253.601761 
	C329.312744,251.953384 327.737793,249.995132 325.744751,249.149536 
	C322.923523,247.952576 319.578644,247.997223 316.744995,246.819595 
	C314.952026,246.074448 313.903992,243.647202 312.131866,242.718628 
	C308.444702,240.786591 304.410004,239.525055 300.686157,237.653610 
	C297.623474,236.114441 293.468658,234.748047 292.184662,232.133102 
	C290.197693,228.086456 287.424774,226.837677 283.661896,225.967316 
	C282.469849,225.691605 281.481750,224.574554 280.374603,223.883774 
	C277.313599,221.973831 274.442078,219.458176 271.108185,218.379227 
	C268.226105,217.446457 267.386536,216.285843 266.672546,213.485321 
	C266.214325,211.687912 263.612396,210.105133 261.628937,209.105835 
	C258.613708,207.586685 255.237808,206.800064 252.139542,205.422424 
	C250.358292,204.630417 248.934052,202.644379 247.151031,202.334213 
	C244.070709,201.798340 243.382187,200.301849 242.673370,197.491440 
	C242.220200,195.694595 239.616959,194.112610 237.636658,193.103317 
	C234.485458,191.497208 231.002335,190.556732 227.753128,189.122787 
	C225.968628,188.335251 224.242203,187.276794 222.734741,186.041336 
	C221.313766,184.876770 219.601608,183.514496 219.088608,181.899063 
	C217.569763,177.116379 214.789444,175.656509 209.820633,177.409393 
	C208.702408,177.803864 207.284637,177.574402 206.050385,177.364273 
	C203.988632,177.013229 201.963623,176.446289 199.923157,175.970215 
z"/>
<path fill="#00B0FF" opacity="1.000000" stroke="none" 
	d="
M199.558533,175.978882 
	C201.963623,176.446289 203.988632,177.013229 206.050385,177.364273 
	C207.284637,177.574402 208.702408,177.803864 209.820633,177.409393 
	C214.789444,175.656509 217.569763,177.116379 219.088608,181.899063 
	C219.601608,183.514496 221.313766,184.876770 222.734741,186.041336 
	C224.242203,187.276794 225.968628,188.335251 227.753128,189.122787 
	C231.002335,190.556732 234.485458,191.497208 237.636658,193.103317 
	C239.616959,194.112610 242.220200,195.694595 242.673370,197.491440 
	C243.382187,200.301849 244.070709,201.798340 247.151031,202.334213 
	C248.934052,202.644379 250.358292,204.630417 252.139542,205.422424 
	C255.237808,206.800064 258.613708,207.586685 261.628937,209.105835 
	C263.612396,210.105133 266.214325,211.687912 266.672546,213.485321 
	C267.386536,216.285843 268.226105,217.446457 271.108185,218.379227 
	C274.442078,219.458176 277.313599,221.973831 280.374603,223.883774 
	C281.481750,224.574554 282.469849,225.691605 283.661896,225.967316 
	C287.424774,226.837677 290.197693,228.086456 292.184662,232.133102 
	C293.468658,234.748047 297.623474,236.114441 300.686157,237.653610 
	C304.410004,239.525055 308.444702,240.786591 312.131866,242.718628 
	C313.903992,243.647202 314.952026,246.074448 316.744995,246.819595 
	C319.578644,247.997223 322.923523,247.952576 325.744751,249.149536 
	C327.737793,249.995132 329.312744,251.953384 330.877472,253.601761 
	C331.329620,254.078064 330.996155,255.896225 331.198822,255.926636 
	C337.279083,256.838959 338.634918,265.173187 345.270905,264.964478 
	C350.466675,264.801086 355.243317,264.862976 355.229828,271.997833 
	C355.228851,272.508484 355.870728,273.194092 356.389526,273.504822 
	C360.876282,276.192352 365.365051,278.881836 369.941284,281.411438 
	C371.352936,282.191772 373.136444,282.290955 374.567413,283.047028 
	C376.123810,283.869385 377.575836,284.975311 378.880890,286.168152 
	C381.143951,288.236603 383.231171,290.497528 385.499481,292.559631 
	C385.646484,292.693268 386.708893,291.819885 387.657654,291.668091 
	C387.882172,298.336304 387.794556,304.751373 387.257355,311.110474 
	C385.689911,311.302063 384.524963,311.423187 383.462280,311.818817 
	C378.769287,313.566010 373.149963,310.885437 370.257416,306.976196 
	C367.487915,303.233307 363.484406,300.402924 360.013184,297.182343 
	C359.910797,297.087341 359.685791,297.064056 359.533447,297.091980 
	C349.872040,298.864349 345.291504,290.448853 340.197449,285.523315 
	C336.315369,281.769684 333.228668,281.404083 328.936218,280.838654 
	C326.870636,280.566559 323.930328,278.993011 323.318604,277.307434 
	C322.109100,273.974640 320.151947,273.477356 317.119446,272.807434 
	C312.779266,271.848633 307.328522,272.129028 305.778473,265.931305 
	C305.481934,264.745544 303.253082,264.066925 301.956360,263.099792 
	C300.960510,262.357025 300.072083,261.466888 299.058716,260.751617 
	C297.221008,259.454468 295.465088,257.901520 293.425690,257.059052 
	C289.126160,255.282913 283.933075,256.035034 281.561584,249.899521 
	C280.236542,246.471390 275.838959,244.185349 272.691772,241.544479 
	C272.041260,240.998642 270.771271,241.250229 269.830719,240.980896 
	C265.161591,239.643799 259.372833,240.296692 257.675995,233.704132 
	C257.399780,232.630981 255.388000,232.010742 254.188187,231.167267 
	C253.162949,230.446503 251.555099,229.898926 251.244141,228.938354 
	C250.236206,225.824783 248.062195,225.456787 245.236954,224.816711 
	C240.901611,223.834518 235.673172,224.125534 233.703583,218.090134 
	C233.186752,216.506485 229.421982,215.348953 227.050522,215.146423 
	C223.056808,214.805359 219.025986,215.615646 217.837402,210.057358 
	C217.584274,208.873596 215.385742,208.110336 214.090927,207.143387 
	C213.090378,206.396210 211.531235,205.819717 211.212372,204.843369 
	C210.185547,201.699493 207.870255,201.529388 205.151825,200.785919 
	C201.616638,199.819107 196.763519,200.782349 194.987823,196.168625 
	C193.684601,192.782486 191.589951,191.074036 187.967987,190.928284 
	C187.010345,190.889725 185.485779,190.195068 185.304626,189.513733 
	C185.100037,188.744171 185.871216,187.220322 186.647659,186.777100 
	C189.035294,185.414185 189.718735,183.590134 189.021469,181.067276 
	C189.021469,181.067276 189.029694,180.998688 189.335602,180.988953 
	C190.099442,180.706467 190.557373,180.433701 191.015305,180.160950 
	C193.741516,178.769821 196.467712,177.378693 199.558533,175.978882 
M385.411774,297.483002 
	C385.411774,297.483002 385.523041,297.416473 385.411774,297.483002 
z"/>
<path fill="#5BBF48" opacity="1.000000" stroke="none" 
	d="
M494.345734,360.778107 
	C492.676056,361.588501 491.269562,362.123291 489.907898,362.754730 
	C489.355286,363.011017 488.824463,363.869751 488.412048,363.790039 
	C481.494934,362.453430 476.761749,366.254303 471.869324,370.248108 
	C470.097687,371.694366 467.196777,371.663971 464.983612,372.682190 
	C460.495514,374.747070 455.041840,376.091156 451.959076,379.510895 
	C447.292297,384.687775 441.584839,385.931183 435.573975,387.367249 
	C435.275604,387.438507 434.866577,387.680878 434.784973,387.932892 
	C432.674713,394.451508 426.139648,392.754791 421.727020,394.979706 
	C420.884064,395.404785 419.370758,395.508179 419.188965,396.083160 
	C416.994293,403.024780 410.810394,401.943329 405.685608,403.032074 
	C404.777313,403.225006 403.333984,403.557159 403.158264,404.135254 
	C401.101166,410.903137 395.061920,409.882629 390.117310,410.992554 
	C389.319214,411.171692 387.957489,411.058319 387.783295,411.471191 
	C384.245636,419.857544 374.538300,419.066162 368.748016,424.270477 
	C365.773682,426.943817 360.949432,427.443268 357.296661,429.516327 
	C354.659760,431.012787 352.576050,433.484192 350.944611,436.203888 
	C348.741547,437.062408 346.538513,437.920959 343.994690,438.995972 
	C338.618591,437.283661 333.583221,435.354858 328.314911,432.847565 
	C332.650299,428.880859 337.299713,425.595551 341.765564,422.077301 
	C346.834839,418.083679 351.850220,414.006104 356.679230,409.728210 
	C360.165802,406.639557 363.312256,403.166504 366.603699,399.858246 
	C367.187653,399.271301 368.201416,398.675781 368.234161,398.043671 
	C368.582611,391.312958 376.084930,390.254883 378.469452,384.965637 
	C379.706360,382.221924 382.756866,380.295807 385.300476,378.151733 
	C387.206055,378.552582 389.651215,379.580780 390.252289,378.923279 
	C393.796844,375.045898 397.941650,375.614746 402.232910,376.612366 
	C406.251831,377.546692 408.846222,376.563477 408.998596,371.974182 
	C409.140381,367.703430 412.262848,367.971924 415.092346,368.088623 
	C417.057312,368.169678 418.994781,368.782318 420.962433,368.966919 
	C423.598694,369.214233 424.822327,368.024445 425.049805,365.236633 
	C425.543732,359.183380 426.923950,358.637970 433.050354,360.348969 
	C435.228607,360.957306 439.868561,360.255829 439.875061,360.044220 
	C440.064545,353.886810 444.345734,351.622650 449.073151,349.632935 
	C449.424133,349.485168 449.649475,348.804321 449.749603,348.332367 
	C450.492462,344.830109 453.115448,343.841675 456.118225,344.063293 
	C461.272888,344.443665 465.054260,343.216278 465.514740,336.976837 
	C467.490448,336.976837 469.288818,337.414276 470.738464,336.889130 
	C474.144348,335.655182 478.607971,334.788177 480.343292,332.219025 
	C482.052887,329.687927 483.267334,328.858490 485.916107,328.977997 
	C488.244019,329.083008 490.590210,328.864227 492.910614,329.032684 
	C495.835846,329.245087 496.985199,328.281281 497.138062,325.140503 
	C497.254700,322.744537 498.638885,320.410248 499.459167,318.048523 
	C499.552612,318.501312 499.646088,318.954132 499.547882,319.842560 
	C499.255371,320.574585 499.351349,320.799286 499.644165,320.952271 
	C499.725159,323.361633 499.806152,325.770996 499.506714,328.813446 
	C499.153259,330.990112 499.180267,332.533722 499.207214,334.077301 
	C497.680481,342.898651 496.153717,351.720001 494.345734,360.778107 
z"/>
<path fill="#01A9FF" opacity="1.000000" stroke="none" 
	d="
M295.003906,302.642059 
	C293.869476,302.838745 292.064362,303.066254 291.712799,302.456116 
	C288.204437,296.367767 281.679657,297.730713 276.437103,295.949951 
	C273.871857,295.078613 271.437988,293.820587 268.937714,292.734558 
	C270.183105,287.490570 265.047791,285.389374 261.819031,283.961121 
	C258.378510,282.439148 253.743027,283.618561 249.397919,282.842194 
	C250.589798,282.396790 251.781693,281.951385 253.011154,281.491943 
	C252.144745,281.083984 250.555756,280.617340 250.585861,280.308533 
	C251.215149,273.852173 244.985123,272.334229 242.068466,268.492737 
	C241.115295,267.237335 239.156860,266.504517 237.515305,266.057617 
	C232.597870,264.718994 228.365875,263.325256 224.660095,258.800110 
	C221.379333,254.794022 217.649445,249.822342 210.997345,249.310043 
	C207.020493,249.003784 203.969528,246.463028 200.911743,243.107178 
	C197.370163,239.220428 194.019073,234.024139 187.350449,233.420670 
	C183.672012,233.087814 179.306366,232.125946 177.581314,227.610504 
	C177.435150,227.227905 176.799866,226.782700 176.394440,226.785263 
	C166.980865,226.844498 161.952209,219.284912 155.343384,214.552429 
	C153.804779,213.450653 153.068954,211.227798 151.929642,209.128876 
	C159.043655,200.926743 166.585281,193.599777 176.658142,189.292206 
	C175.615936,201.071320 175.624969,200.974976 188.001068,202.135010 
	C189.428833,202.268845 191.117966,203.949631 191.947052,205.350479 
	C194.831619,210.224380 200.870377,212.103622 203.209930,217.468689 
	C203.398209,217.900482 204.739883,217.934662 205.553040,217.967209 
	C207.382614,218.040436 209.221481,218.081055 211.048141,217.980881 
	C213.880234,217.825592 215.618729,218.464920 216.315216,221.790054 
	C216.652557,223.400620 218.948074,225.469803 220.617142,225.743149 
	C223.647659,226.239441 225.029068,227.180908 225.209305,230.356323 
	C225.261948,231.283936 227.003159,232.578918 228.182861,232.883987 
	C230.721466,233.540451 233.427582,233.522568 236.005981,234.062912 
	C237.323914,234.339096 239.524368,235.113571 239.605103,235.851166 
	C240.363174,242.777939 245.352585,242.141022 250.051025,241.974701 
	C253.293579,241.859894 255.919800,241.995560 256.423431,246.292419 
	C256.577789,247.609482 258.618347,249.085175 260.122345,249.794495 
	C265.017395,252.103058 265.979980,259.410156 272.563629,259.462189 
	C272.641785,259.462799 272.791809,259.743286 272.784149,259.886475 
	C272.423340,266.615906 278.028412,265.296143 281.547729,265.806091 
	C285.042084,266.312408 287.990692,265.984650 288.654877,270.713196 
	C288.836914,272.009064 291.723175,273.322052 293.590820,273.871765 
	C295.431580,274.413544 297.557465,274.072601 299.552277,273.984070 
	C302.320587,273.861206 303.559113,274.834839 304.222412,277.809906 
	C304.656372,279.756256 306.984100,281.352051 308.632111,282.928680 
	C309.600739,283.855347 310.899323,284.437073 311.595154,284.882874 
	C314.542999,284.178406 317.349396,283.507721 320.155823,282.837036 
	C320.217194,283.205261 320.278564,283.573456 320.339905,283.941681 
	C318.932800,284.747620 317.525665,285.553589 315.854736,286.606628 
	C311.482483,289.598083 307.374054,292.342438 303.265594,295.086761 
	C301.789673,296.178589 300.313721,297.270447 298.090424,298.915131 
	C298.286438,299.396454 297.954651,298.581726 297.331024,297.050323 
	C296.380066,299.192657 295.693909,300.738403 295.003906,302.642059 
M156.371902,208.524948 
	C156.159760,208.470490 155.947632,208.416031 155.735489,208.361572 
	C155.871811,208.495438 156.008133,208.629318 156.371902,208.524948 
M271.411163,289.482758 
	C271.411163,289.482758 271.523285,289.415619 271.411163,289.482758 
z"/>
<path fill="#028DFE" opacity="1.000000" stroke="none" 
	d="
M143.910919,389.033569 
	C131.961792,372.897308 122.548111,355.527435 118.446358,335.403687 
	C128.317230,334.911041 135.057236,341.864014 143.464294,344.482452 
	C144.551712,344.821136 145.216110,346.669830 145.967773,347.886230 
	C146.558853,348.842743 146.713058,350.392548 147.523544,350.838135 
	C153.123947,353.917145 158.708878,357.102570 164.588348,359.561401 
	C167.356506,360.719055 169.896011,361.200562 170.197876,364.790192 
	C170.268509,365.630249 171.072556,366.746002 171.842590,367.136353 
	C177.828522,370.170898 183.956375,372.931366 189.882416,376.074371 
	C191.535324,376.950989 192.631470,378.852875 194.034988,380.231537 
	C195.342636,381.515930 196.778366,383.858215 198.056122,383.791382 
	C206.174240,383.367004 209.205429,392.581573 216.616135,393.232391 
	C216.959595,393.262573 217.486328,393.940308 217.520340,394.350250 
	C218.054321,400.785095 222.746613,400.171661 227.097610,399.977539 
	C230.784531,399.813080 233.632462,400.354828 234.301682,404.891266 
	C234.474426,406.062195 236.400833,407.241302 237.767853,407.923096 
	C243.769882,410.916687 249.875229,413.702545 255.903885,416.644073 
	C256.594116,416.980835 257.479218,417.787445 257.528809,418.433380 
	C258.022369,424.862579 263.993378,425.084351 267.884369,426.708130 
	C272.536865,428.649750 274.736176,431.273499 274.711487,435.898773 
	C271.282776,436.944855 268.142578,438.090942 265.002350,439.237000 
	C255.568024,439.301575 246.133713,439.366150 236.505768,438.977112 
	C236.779068,437.968628 237.246002,437.413757 237.524521,437.082794 
	C234.293182,435.867798 231.433289,434.128479 228.422943,433.809692 
	C223.383194,433.275940 224.159821,429.372559 223.404449,425.977051 
	C217.231277,426.953278 216.065445,422.702209 215.512314,419.226990 
	C209.937408,415.115631 200.136322,421.307373 199.323410,410.254883 
	C195.861603,409.806061 192.757141,409.156586 189.637054,409.069946 
	C186.636765,408.986633 185.045990,408.210602 184.848267,404.846069 
	C184.770737,403.526855 182.975357,401.185699 182.046753,401.226593 
	C177.046173,401.446899 175.854218,398.346527 175.641129,395.364746 
	C170.383911,390.738403 160.163651,397.725525 159.472366,386.133270 
	C153.863358,386.416565 151.264435,383.717499 151.583313,378.362823 
	C148.978958,378.362823 146.765793,378.362823 144.638748,378.362823 
	C144.498566,380.500061 144.382812,382.264862 144.311859,383.346680 
	C147.115112,386.423035 149.598923,389.148804 152.082733,391.874573 
	C151.802216,392.133575 151.521698,392.392578 151.241196,392.651581 
	C148.797760,391.445587 146.354340,390.239594 143.910919,389.033569 
M240.410950,436.482849 
	C240.410950,436.482849 240.522766,436.415955 240.410950,436.482849 
z"/>
<path fill="#68C347" opacity="1.000000" stroke="none" 
	d="
M499.574280,317.632507 
	C498.638885,320.410248 497.254700,322.744537 497.138062,325.140503 
	C496.985199,328.281281 495.835846,329.245087 492.910614,329.032684 
	C490.590210,328.864227 488.244019,329.083008 485.916107,328.977997 
	C483.267334,328.858490 482.052887,329.687927 480.343292,332.219025 
	C478.607971,334.788177 474.144348,335.655182 470.738464,336.889130 
	C469.288818,337.414276 467.490448,336.976837 465.514740,336.976837 
	C465.054260,343.216278 461.272888,344.443665 456.118225,344.063293 
	C453.115448,343.841675 450.492462,344.830109 449.749603,348.332367 
	C449.649475,348.804321 449.424133,349.485168 449.073151,349.632935 
	C444.345734,351.622650 440.064545,353.886810 439.875061,360.044220 
	C439.868561,360.255829 435.228607,360.957306 433.050354,360.348969 
	C426.923950,358.637970 425.543732,359.183380 425.049805,365.236633 
	C424.822327,368.024445 423.598694,369.214233 420.962433,368.966919 
	C418.994781,368.782318 417.057312,368.169678 415.092346,368.088623 
	C412.262848,367.971924 409.140381,367.703430 408.998596,371.974182 
	C408.846222,376.563477 406.251831,377.546692 402.232910,376.612366 
	C397.941650,375.614746 393.796844,375.045898 390.252289,378.923279 
	C389.651215,379.580780 387.206055,378.552582 385.308807,377.772644 
	C385.942139,374.956238 386.906769,372.681091 387.811737,370.382416 
	C390.318573,364.014801 393.397705,357.713684 390.256226,350.436554 
	C395.240021,346.432495 391.624329,341.781586 391.154419,337.309479 
	C391.260498,337.326904 391.441284,337.430878 391.762207,337.548126 
	C392.346375,336.677246 392.609680,335.689117 392.982727,334.349365 
	C397.027222,325.632202 395.695099,319.752899 388.262451,312.994019 
	C387.992523,312.220123 387.849731,311.693268 387.706940,311.166412 
	C387.794556,304.751373 387.882172,298.336304 387.888153,291.458466 
	C386.973755,285.263947 386.140991,279.532196 385.619995,273.482483 
	C386.603790,274.320984 387.275818,275.477448 388.141998,276.968079 
	C388.752289,275.653625 389.134216,274.831024 389.676697,273.662659 
	C390.243317,278.702942 390.762421,283.320343 391.334198,288.406586 
	C391.845093,287.260193 392.150116,286.575745 392.522644,285.739868 
	C392.946930,286.961792 393.210815,288.053986 393.687927,289.043427 
	C397.610687,297.178741 401.195984,305.294952 401.134308,314.709747 
	C401.095612,320.612244 402.253876,326.540558 403.143036,332.416718 
	C403.330841,333.657837 404.686462,334.722260 405.503967,335.868134 
	C406.477234,334.985626 407.428589,334.077362 408.429260,333.227112 
	C409.717926,332.132172 410.948792,330.346558 412.376160,330.158051 
	C416.171265,329.656891 419.758240,329.282135 421.386566,324.275940 
	C422.763062,327.047607 423.747070,329.028961 424.877869,331.336975 
	C429.049957,339.493622 435.349640,343.036560 442.602783,341.549561 
	C453.251648,339.366425 457.571686,330.032135 453.820709,318.120850 
	C455.154480,315.954010 456.706085,313.917084 456.879150,311.769104 
	C457.366272,305.723267 457.838043,305.031616 464.006317,305.000824 
	C465.166595,304.995026 466.329559,304.949249 467.486694,305.009735 
	C470.564911,305.170593 473.118927,304.950562 473.165771,300.757874 
	C473.178650,299.605927 474.656647,297.575958 475.609589,297.484589 
	C479.625916,297.099518 482.039337,295.524445 482.677795,291.309326 
	C482.767548,290.716858 484.874969,290.163605 486.084106,290.074158 
	C487.612885,289.961029 489.178253,290.341919 490.511322,290.486267 
	C491.380463,288.414886 492.085785,286.733948 492.791107,285.052979 
	C495.090515,295.774170 497.389923,306.495331 499.574280,317.632507 
z"/>
<path fill="#0293FE" opacity="1.000000" stroke="none" 
	d="
M116.574875,322.144165 
	C115.802925,318.737183 115.030968,315.330170 114.676437,311.579285 
	C115.851746,311.674622 116.609642,312.113922 118.233131,313.054932 
	C117.286720,307.513794 116.496246,302.885620 115.705772,298.257477 
	C116.034363,298.197815 116.362953,298.138153 116.691544,298.078522 
	C116.959343,299.875946 117.227150,301.673401 117.494949,303.470856 
	C118.625069,302.744110 118.716156,301.997406 119.005646,301.337799 
	C119.780411,299.572388 120.849800,296.288940 121.430443,296.367157 
	C124.132622,296.731262 128.653595,297.591248 128.987045,299.070923 
	C130.294647,304.873108 134.238937,304.145142 138.119247,303.964233 
	C142.291306,303.769684 145.120850,304.974426 146.213425,309.469482 
	C146.474731,310.544525 148.437759,311.592285 149.800613,311.942566 
	C154.349609,313.111847 158.752625,313.511627 162.422913,317.701385 
	C164.354492,319.906342 169.534241,319.265839 173.569794,319.955139 
	C176.650528,320.802673 179.408752,321.605286 182.184158,322.739380 
	C180.803619,323.850861 179.405914,324.630890 177.589691,325.644470 
	C178.426071,326.747620 179.412933,328.638458 180.919128,329.917969 
	C184.479782,332.942749 186.465332,338.035431 191.978714,338.562927 
	C192.092712,338.573822 192.249771,338.797760 192.278305,338.943542 
	C193.552444,345.452362 198.693466,344.936401 203.414917,344.966003 
	C206.477402,344.985199 208.277039,345.968903 209.180908,349.196960 
	C209.604523,350.709900 211.652557,351.825043 213.077545,352.980957 
	C214.065582,353.782410 216.037033,354.181671 216.215515,355.041595 
	C217.533279,361.390350 222.507599,360.837738 227.007843,360.946960 
	C230.190338,361.024170 231.544235,362.299713 233.296188,365.171661 
	C235.841171,369.343567 239.878769,372.821381 243.875122,375.795227 
	C245.724472,377.171417 249.056290,376.385620 251.572510,377.091461 
	C253.439056,377.615112 256.296417,378.693390 256.584045,379.994965 
	C257.458954,383.953888 259.592102,384.861816 263.236481,385.190704 
	C266.144165,385.453156 270.441528,386.184174 271.438171,388.101929 
	C273.002411,391.111938 274.126190,393.081757 277.706482,393.208832 
	C278.640900,393.242004 280.259979,394.399689 280.327972,395.152588 
	C280.813049,400.524384 285.184265,400.048584 288.642761,401.129211 
	C291.812988,402.119720 296.449066,401.248505 296.474548,406.713196 
	C303.757874,407.939606 305.618652,418.365540 314.586609,417.137939 
	C318.037842,416.665497 321.701721,417.746368 325.058533,418.408936 
	C321.095154,420.869720 317.341919,423.041077 313.588684,425.212494 
	C309.708008,426.911774 305.827301,428.611023 301.345398,430.012360 
	C298.932312,428.495880 297.235199,426.481934 295.287994,426.200928 
	C288.094025,425.162628 289.046631,415.124847 281.787567,414.375549 
	C281.492096,414.345062 281.131165,413.222809 281.105316,412.596619 
	C280.972931,409.393646 278.944611,409.005310 276.320770,408.951721 
	C273.372437,408.891541 268.979279,409.550629 267.777283,407.960144 
	C264.896057,404.147705 259.810760,401.632935 258.300018,398.223267 
	C255.852936,392.700256 252.609238,392.814301 248.330063,393.012421 
	C244.372406,393.195618 241.612320,392.137024 240.768951,387.632538 
	C240.565720,386.546997 238.276581,385.378754 236.790604,385.109253 
	C234.045090,384.611389 230.114319,385.867645 228.583206,384.402008 
	C224.834503,380.813721 220.436966,377.412720 217.729156,373.293396 
	C215.648407,370.127991 214.265457,368.378571 210.825211,369.046204 
	C201.158722,370.922058 200.104843,359.938660 193.353760,357.519165 
	C193.173477,357.454559 193.094070,356.915527 193.085495,356.594604 
	C192.999786,353.387299 190.939270,353.006256 188.317719,352.951813 
	C185.369446,352.890656 180.970718,353.548462 179.775482,351.959015 
	C176.900986,348.136505 171.802322,345.633057 170.298035,342.221924 
	C167.856842,336.686188 164.602005,336.819092 160.327026,337.012726 
	C156.370377,337.191895 153.532837,336.158081 152.816727,331.617188 
	C152.659409,330.619568 150.967819,329.385101 149.790115,329.121979 
	C146.906998,328.477722 143.898849,328.416199 140.967682,327.951752 
	C139.919815,327.785706 138.143219,327.241852 138.070282,326.689392 
	C137.500107,322.370972 134.511002,320.881470 130.919785,319.775085 
	C130.294098,319.582336 129.600342,318.551971 129.512314,317.837708 
	C128.704224,311.279510 124.413895,312.904419 121.939667,313.305206 
	C119.710991,316.977142 118.142937,319.560669 116.574875,322.144165 
z"/>
<path fill="#0091FE" opacity="1.000000" stroke="none" 
	d="
M116.605202,322.462463 
	C118.142937,319.560669 119.710991,316.977142 121.939667,313.305206 
	C124.413895,312.904419 128.704224,311.279510 129.512314,317.837708 
	C129.600342,318.551971 130.294098,319.582336 130.919785,319.775085 
	C134.511002,320.881470 137.500107,322.370972 138.070282,326.689392 
	C138.143219,327.241852 139.919815,327.785706 140.967682,327.951752 
	C143.898849,328.416199 146.906998,328.477722 149.790115,329.121979 
	C150.967819,329.385101 152.659409,330.619568 152.816727,331.617188 
	C153.532837,336.158081 156.370377,337.191895 160.327026,337.012726 
	C164.602005,336.819092 167.856842,336.686188 170.298035,342.221924 
	C171.802322,345.633057 176.900986,348.136505 179.775482,351.959015 
	C180.970718,353.548462 185.369446,352.890656 188.317719,352.951813 
	C190.939270,353.006256 192.999786,353.387299 193.085495,356.594604 
	C193.094070,356.915527 193.173477,357.454559 193.353760,357.519165 
	C200.104843,359.938660 201.158722,370.922058 210.825211,369.046204 
	C214.265457,368.378571 215.648407,370.127991 217.729156,373.293396 
	C220.436966,377.412720 224.834503,380.813721 228.583206,384.402008 
	C230.114319,385.867645 234.045090,384.611389 236.790604,385.109253 
	C238.276581,385.378754 240.565720,386.546997 240.768951,387.632538 
	C241.612320,392.137024 244.372406,393.195618 248.330063,393.012421 
	C252.609238,392.814301 255.852936,392.700256 258.300018,398.223267 
	C259.810760,401.632935 264.896057,404.147705 267.777283,407.960144 
	C268.979279,409.550629 273.372437,408.891541 276.320770,408.951721 
	C278.944611,409.005310 280.972931,409.393646 281.105316,412.596619 
	C281.131165,413.222809 281.492096,414.345062 281.787567,414.375549 
	C289.046631,415.124847 288.094025,425.162628 295.287994,426.200928 
	C297.235199,426.481934 298.932312,428.495880 300.959961,430.038391 
	C297.828735,431.498413 294.481812,432.634491 290.549042,433.956024 
	C289.662323,434.328583 289.361389,434.515686 289.060455,434.702759 
	C288.887634,434.808655 288.714844,434.914551 287.855408,435.003723 
	C285.127502,435.587738 283.086212,436.188446 281.044952,436.789154 
	C280.856049,436.871643 280.667145,436.954102 279.818359,436.962952 
	C277.772308,436.592468 276.386169,436.295624 275.000000,435.998779 
	C274.736176,431.273499 272.536865,428.649750 267.884369,426.708130 
	C263.993378,425.084351 258.022369,424.862579 257.528809,418.433380 
	C257.479218,417.787445 256.594116,416.980835 255.903885,416.644073 
	C249.875229,413.702545 243.769882,410.916687 237.767853,407.923096 
	C236.400833,407.241302 234.474426,406.062195 234.301682,404.891266 
	C233.632462,400.354828 230.784531,399.813080 227.097610,399.977539 
	C222.746613,400.171661 218.054321,400.785095 217.520340,394.350250 
	C217.486328,393.940308 216.959595,393.262573 216.616135,393.232391 
	C209.205429,392.581573 206.174240,383.367004 198.056122,383.791382 
	C196.778366,383.858215 195.342636,381.515930 194.034988,380.231537 
	C192.631470,378.852875 191.535324,376.950989 189.882416,376.074371 
	C183.956375,372.931366 177.828522,370.170898 171.842590,367.136353 
	C171.072556,366.746002 170.268509,365.630249 170.197876,364.790192 
	C169.896011,361.200562 167.356506,360.719055 164.588348,359.561401 
	C158.708878,357.102570 153.123947,353.917145 147.523544,350.838135 
	C146.713058,350.392548 146.558853,348.842743 145.967773,347.886230 
	C145.216110,346.669830 144.551712,344.821136 143.464294,344.482452 
	C135.057236,341.864014 128.317230,334.911041 118.482834,335.009674 
	C117.950317,332.939026 117.823402,330.877991 118.219139,328.343262 
	C120.649765,326.166870 120.753601,324.809784 117.742607,323.999939 
	C117.312752,323.999878 117.140816,323.999878 116.968880,323.999878 
	C116.857758,323.593506 116.746643,323.187164 116.605202,322.462463 
M278.756775,434.468353 
	C279.148712,434.596619 279.535950,434.745972 279.936615,434.835144 
	C280.015961,434.852814 280.146790,434.639221 280.253845,434.532227 
	C279.861938,434.404114 279.470001,434.276031 278.756775,434.468353 
M287.411774,433.482819 
	C287.411774,433.482819 287.523132,433.416351 287.411774,433.482819 
z"/>
<path fill="#029EFE" opacity="1.000000" stroke="none" 
	d="
M235.011673,291.008789 
	C235.579834,291.518585 236.147995,292.028381 236.864960,292.771973 
	C237.013748,293.005768 237.031036,293.024963 236.639587,293.016602 
	C234.929535,293.162811 233.610947,293.317352 232.292358,293.471893 
	C232.256714,293.860352 232.221085,294.248810 232.185440,294.637268 
	C233.141861,295.096375 234.098267,295.555481 235.029877,296.335815 
	C234.667496,297.439697 234.329926,298.222351 233.703842,299.272339 
	C233.311081,300.868896 233.206818,302.198212 233.238083,303.871582 
	C235.283081,308.745605 237.192566,313.275513 238.922577,318.152252 
	C237.096329,319.084930 235.449554,319.670837 233.600723,320.328644 
	C232.075027,308.098541 222.677719,315.416565 217.416290,312.191772 
	C216.651474,308.785828 215.717545,305.049988 210.733826,304.847778 
	C210.130539,304.823303 209.357422,303.634308 209.036667,302.835052 
	C206.261612,295.920105 206.287125,295.909882 199.458862,298.896881 
	C197.817245,295.937683 197.036377,292.603455 194.971451,290.578979 
	C190.344986,286.043121 179.621033,285.185303 174.243973,289.158508 
	C170.833984,291.678192 168.514709,295.673981 165.486328,298.752869 
	C164.446655,295.348907 163.626968,292.199829 162.471375,287.760345 
	C158.415863,293.431915 155.868820,291.759033 153.115967,288.688080 
	C149.381180,284.521729 144.871231,281.543732 139.084854,280.959076 
	C138.297928,280.879578 137.275208,280.682098 136.819733,280.148376 
	C131.493469,273.906586 126.254936,267.589935 120.993225,261.293060 
	C125.184235,251.672424 129.375244,242.051788 133.849762,232.240311 
	C134.659592,232.858871 135.185913,233.668274 135.709503,234.473495 
	C140.904892,231.860382 142.164413,232.398178 144.161850,238.022125 
	C144.382736,238.644058 144.571854,239.591278 145.021088,239.769638 
	C149.603683,241.589188 152.913055,245.225342 156.913101,247.819611 
	C159.253922,249.337784 162.613800,249.207138 165.399704,250.157104 
	C166.424622,250.506592 167.262039,251.735992 167.915634,252.739487 
	C168.433517,253.534592 168.240189,255.016541 168.878296,255.473434 
	C173.001266,258.425751 177.098709,261.491119 181.546631,263.883362 
	C184.222153,265.322327 189.127731,264.698395 190.206360,266.602051 
	C192.676025,270.960815 194.987122,274.510132 200.321091,275.022614 
	C201.884811,281.496643 208.261810,279.712830 212.241165,282.041687 
	C213.699112,282.894897 214.749008,284.418915 216.078247,285.524872 
	C217.934952,287.069672 219.688675,289.314362 221.826904,289.820099 
	C225.800110,290.759766 230.019363,290.659027 234.568085,290.995728 
	C235.000000,291.000000 235.011673,291.008789 235.011673,291.008789 
z"/>
<path fill="#02ADFF" opacity="1.000000" stroke="none" 
	d="
M387.257355,311.110474 
	C387.849731,311.693268 387.992523,312.220123 388.084290,313.268585 
	C386.968719,320.525604 385.904175,327.260986 384.453308,333.997803 
	C380.416992,334.629364 379.861969,332.719299 379.696716,330.792847 
	C374.449402,326.305176 369.202087,321.817505 362.699646,316.256409 
	C357.885162,317.041595 352.042816,315.424652 349.453033,308.161499 
	C347.364075,310.114105 345.800354,311.575775 344.495392,312.795563 
	C341.815979,308.130249 339.481842,304.066071 337.023315,299.664185 
	C331.883270,288.915466 326.858704,285.780151 316.118530,286.359528 
	C317.525665,285.553589 318.932800,284.747620 320.339905,283.941681 
	C320.278564,283.573456 320.217194,283.205261 320.155823,282.837036 
	C317.349396,283.507721 314.542999,284.178406 311.595154,284.882874 
	C310.899323,284.437073 309.600739,283.855347 308.632111,282.928680 
	C306.984100,281.352051 304.656372,279.756256 304.222412,277.809906 
	C303.559113,274.834839 302.320587,273.861206 299.552277,273.984070 
	C297.557465,274.072601 295.431580,274.413544 293.590820,273.871765 
	C291.723175,273.322052 288.836914,272.009064 288.654877,270.713196 
	C287.990692,265.984650 285.042084,266.312408 281.547729,265.806091 
	C278.028412,265.296143 272.423340,266.615906 272.784149,259.886475 
	C272.791809,259.743286 272.641785,259.462799 272.563629,259.462189 
	C265.979980,259.410156 265.017395,252.103058 260.122345,249.794495 
	C258.618347,249.085175 256.577789,247.609482 256.423431,246.292419 
	C255.919800,241.995560 253.293579,241.859894 250.051025,241.974701 
	C245.352585,242.141022 240.363174,242.777939 239.605103,235.851166 
	C239.524368,235.113571 237.323914,234.339096 236.005981,234.062912 
	C233.427582,233.522568 230.721466,233.540451 228.182861,232.883987 
	C227.003159,232.578918 225.261948,231.283936 225.209305,230.356323 
	C225.029068,227.180908 223.647659,226.239441 220.617142,225.743149 
	C218.948074,225.469803 216.652557,223.400620 216.315216,221.790054 
	C215.618729,218.464920 213.880234,217.825592 211.048141,217.980881 
	C209.221481,218.081055 207.382614,218.040436 205.553040,217.967209 
	C204.739883,217.934662 203.398209,217.900482 203.209930,217.468689 
	C200.870377,212.103622 194.831619,210.224380 191.947052,205.350479 
	C191.117966,203.949631 189.428833,202.268845 188.001068,202.135010 
	C175.624969,200.974976 175.615936,201.071320 177.024353,189.354523 
	C176.995911,189.021667 177.337387,188.847794 177.888596,188.875977 
	C179.461090,188.317551 180.482391,187.730927 181.503677,187.144318 
	C180.953308,186.744904 180.402954,186.345474 179.852585,185.946075 
	C182.675644,184.344254 185.498703,182.742432 188.671616,181.103943 
	C189.718735,183.590134 189.035294,185.414185 186.647659,186.777100 
	C185.871216,187.220322 185.100037,188.744171 185.304626,189.513733 
	C185.485779,190.195068 187.010345,190.889725 187.967987,190.928284 
	C191.589951,191.074036 193.684601,192.782486 194.987823,196.168625 
	C196.763519,200.782349 201.616638,199.819107 205.151825,200.785919 
	C207.870255,201.529388 210.185547,201.699493 211.212372,204.843369 
	C211.531235,205.819717 213.090378,206.396210 214.090927,207.143387 
	C215.385742,208.110336 217.584274,208.873596 217.837402,210.057358 
	C219.025986,215.615646 223.056808,214.805359 227.050522,215.146423 
	C229.421982,215.348953 233.186752,216.506485 233.703583,218.090134 
	C235.673172,224.125534 240.901611,223.834518 245.236954,224.816711 
	C248.062195,225.456787 250.236206,225.824783 251.244141,228.938354 
	C251.555099,229.898926 253.162949,230.446503 254.188187,231.167267 
	C255.388000,232.010742 257.399780,232.630981 257.675995,233.704132 
	C259.372833,240.296692 265.161591,239.643799 269.830719,240.980896 
	C270.771271,241.250229 272.041260,240.998642 272.691772,241.544479 
	C275.838959,244.185349 280.236542,246.471390 281.561584,249.899521 
	C283.933075,256.035034 289.126160,255.282913 293.425690,257.059052 
	C295.465088,257.901520 297.221008,259.454468 299.058716,260.751617 
	C300.072083,261.466888 300.960510,262.357025 301.956360,263.099792 
	C303.253082,264.066925 305.481934,264.745544 305.778473,265.931305 
	C307.328522,272.129028 312.779266,271.848633 317.119446,272.807434 
	C320.151947,273.477356 322.109100,273.974640 323.318604,277.307434 
	C323.930328,278.993011 326.870636,280.566559 328.936218,280.838654 
	C333.228668,281.404083 336.315369,281.769684 340.197449,285.523315 
	C345.291504,290.448853 349.872040,298.864349 359.533447,297.091980 
	C359.685791,297.064056 359.910797,297.087341 360.013184,297.182343 
	C363.484406,300.402924 367.487915,303.233307 370.257416,306.976196 
	C373.149963,310.885437 378.769287,313.566010 383.462280,311.818817 
	C384.524963,311.423187 385.689911,311.302063 387.257355,311.110474 
z"/>
<path fill="#75C745" opacity="1.000000" stroke="none" 
	d="
M424.731110,331.010345 
	C423.747070,329.028961 422.763062,327.047607 421.386566,324.275940 
	C419.758240,329.282135 416.171265,329.656891 412.376160,330.158051 
	C410.948792,330.346558 409.717926,332.132172 408.429260,333.227112 
	C407.428589,334.077362 406.477234,334.985626 405.503967,335.868134 
	C404.686462,334.722260 403.330841,333.657837 403.143036,332.416718 
	C402.253876,326.540558 401.095612,320.612244 401.134308,314.709747 
	C401.195984,305.294952 397.610687,297.178741 393.687927,289.043427 
	C393.210815,288.053986 392.946930,286.961792 392.522644,285.739868 
	C392.150116,286.575745 391.845093,287.260193 391.334198,288.406586 
	C390.762421,283.320343 390.243317,278.702942 389.676697,273.662659 
	C389.134216,274.831024 388.752289,275.653625 388.141998,276.968079 
	C387.275818,275.477448 386.603790,274.320984 385.612061,273.081238 
	C383.603912,267.241547 381.915436,261.485077 380.542938,255.300079 
	C381.474060,254.207169 382.089203,253.542816 383.532471,251.984116 
	C382.966888,259.650482 387.210724,263.756683 392.269623,267.347382 
	C392.619202,267.595520 392.711273,268.199890 392.935547,268.632111 
	C395.488373,273.551788 398.196198,278.399719 400.518188,283.425934 
	C401.368744,285.267029 401.052673,287.614655 401.710480,289.583649 
	C403.338104,294.455750 405.220764,299.242706 407.000977,304.063873 
	C407.532715,304.050720 408.064484,304.037598 408.596252,304.024475 
	C409.313873,298.896881 412.900269,297.812317 416.955750,297.075165 
	C419.171082,296.672485 422.763123,296.061188 423.155548,294.763885 
	C424.826202,289.240784 429.266541,289.597015 433.347626,288.695007 
	C436.394470,288.021606 440.160339,288.250458 440.836212,283.686432 
	C440.939423,282.989441 442.506012,282.255829 443.514008,281.993561 
	C446.543701,281.205353 449.661499,280.751312 452.682068,279.934387 
	C453.820251,279.626556 455.554291,278.819824 455.701447,278.003448 
	C456.458893,273.801453 459.838501,273.520203 462.825745,273.114105 
	C467.878052,272.427338 472.698639,271.872772 473.477753,265.365479 
	C473.581696,264.497223 474.546936,263.732117 475.080383,262.966553 
	C478.581909,265.191223 481.304169,266.411560 481.018494,260.971497 
	C484.946075,268.753265 488.873657,276.535004 492.796173,284.684875 
	C492.085785,286.733948 491.380463,288.414886 490.511322,290.486267 
	C489.178253,290.341919 487.612885,289.961029 486.084106,290.074158 
	C484.874969,290.163605 482.767548,290.716858 482.677795,291.309326 
	C482.039337,295.524445 479.625916,297.099518 475.609589,297.484589 
	C474.656647,297.575958 473.178650,299.605927 473.165771,300.757874 
	C473.118927,304.950562 470.564911,305.170593 467.486694,305.009735 
	C466.329559,304.949249 465.166595,304.995026 464.006317,305.000824 
	C457.838043,305.031616 457.366272,305.723267 456.879150,311.769104 
	C456.706085,313.917084 455.154480,315.954010 453.560272,317.945953 
	C451.109955,316.179169 449.563934,314.108521 447.508850,312.912964 
	C441.694336,309.530334 435.619659,309.880188 430.315308,313.793152 
	C424.579407,318.024445 423.193573,324.164856 424.731110,331.010345 
z"/>
<path fill="#03BAFD" opacity="1.000000" stroke="none" 
	d="
M377.049835,248.979721 
	C372.745911,248.643555 368.436157,248.364319 364.142822,247.924835 
	C363.247986,247.833237 361.663696,247.144363 361.666229,246.738678 
	C361.695923,242.004272 358.506470,240.872482 354.787598,240.104019 
	C354.268127,239.996674 353.533417,239.185837 353.511871,238.674789 
	C353.166656,230.489655 346.445190,233.012985 342.089233,232.152054 
	C339.217102,231.584381 338.333527,230.459000 336.598907,228.100174 
	C333.738861,224.210907 329.128662,221.602203 326.164764,217.277481 
	C325.300690,216.016663 321.119659,216.966843 318.460999,217.014450 
	C315.378876,217.069656 313.590668,215.962646 312.856445,212.668823 
	C312.541199,211.254517 310.602020,210.182022 309.356750,209.000504 
	C307.938721,207.655029 305.443939,206.505585 305.234589,205.015564 
	C304.762878,201.658493 303.188721,200.834076 300.255615,200.979156 
	C298.098572,201.085846 295.746094,201.521301 293.822937,200.841705 
	C291.992432,200.194855 289.582672,198.505432 289.246735,196.894943 
	C288.634308,193.958908 287.437988,193.092773 284.681702,192.845963 
	C283.167816,192.710419 281.039459,191.853027 280.417725,190.673172 
	C277.942749,185.976303 273.563080,185.798569 269.240112,184.817139 
	C267.618652,184.449020 265.492310,182.409500 265.215576,180.845474 
	C264.682526,177.832794 263.372559,176.955750 260.599213,176.933990 
	C258.977600,176.921265 257.373779,176.223206 255.738907,176.046539 
	C248.616669,175.276947 248.555405,175.236115 248.858810,167.333374 
	C249.000381,166.999619 249.005051,166.994949 249.367310,166.996765 
	C250.815369,166.681351 251.901169,166.364120 252.986954,166.046890 
	C256.378265,166.109589 259.769562,166.172287 263.606781,166.588928 
	C264.335449,166.836441 264.618225,166.729996 264.901001,166.623566 
	C275.029205,168.996109 285.185455,171.255615 295.279816,173.764374 
	C317.318726,179.241714 334.539093,192.566055 350.854553,208.420013 
	C361.126740,219.809265 369.071136,232.056839 376.016846,245.352615 
	C376.379791,246.791702 376.714813,247.885712 377.049835,248.979721 
M258.371124,167.525345 
	C258.159454,167.471039 257.947815,167.416748 257.736145,167.362457 
	C257.872131,167.495819 258.008087,167.629196 258.371124,167.525345 
z"/>
<path fill="#0387FE" opacity="1.000000" stroke="none" 
	d="
M143.924744,389.410400 
	C146.354340,390.239594 148.797760,391.445587 151.241196,392.651581 
	C151.521698,392.392578 151.802216,392.133575 152.082733,391.874573 
	C149.598923,389.148804 147.115112,386.423035 144.311859,383.346680 
	C144.382812,382.264862 144.498566,380.500061 144.638748,378.362823 
	C146.765793,378.362823 148.978958,378.362823 151.583313,378.362823 
	C151.264435,383.717499 153.863358,386.416565 159.472366,386.133270 
	C160.163651,397.725525 170.383911,390.738403 175.641129,395.364746 
	C175.854218,398.346527 177.046173,401.446899 182.046753,401.226593 
	C182.975357,401.185699 184.770737,403.526855 184.848267,404.846069 
	C185.045990,408.210602 186.636765,408.986633 189.637054,409.069946 
	C192.757141,409.156586 195.861603,409.806061 199.323410,410.254883 
	C200.136322,421.307373 209.937408,415.115631 215.512314,419.226990 
	C216.065445,422.702209 217.231277,426.953278 223.404449,425.977051 
	C224.159821,429.372559 223.383194,433.275940 228.422943,433.809692 
	C231.433289,434.128479 234.293182,435.867798 237.524521,437.082794 
	C237.246002,437.413757 236.779068,437.968628 236.141083,438.786560 
	C232.083832,438.576294 228.197632,438.102905 224.385941,437.354462 
	C225.821548,436.902069 227.182678,436.724670 228.543793,436.547272 
	C228.355682,435.930908 228.167572,435.314545 227.979462,434.698181 
	C226.316360,435.473022 224.653259,436.247894 222.990158,437.022736 
	C214.587799,434.684875 206.108002,432.590515 197.802231,429.949005 
	C186.820801,426.456543 176.238129,427.675598 166.016296,432.249847 
	C158.770432,435.492340 151.849182,439.460236 143.577408,443.726105 
	C144.712006,438.102570 145.510971,433.509796 146.577606,428.980011 
	C149.283493,417.488556 150.724075,406.038849 146.129440,394.660400 
	C145.463089,393.010193 144.671982,391.410370 143.924744,389.410400 
z"/>
<path fill="#86CC44" opacity="1.000000" stroke="none" 
	d="
M375.988983,245.007538 
	C369.071136,232.056839 361.126740,219.809265 351.164764,208.581635 
	C351.263367,208.261612 351.445496,208.246384 352.113342,208.515030 
	C354.459839,209.845078 356.406311,210.765503 358.164124,211.962860 
	C362.160126,214.684723 366.164734,217.412766 369.974548,220.383636 
	C373.445648,223.090378 376.664551,226.120605 379.998901,229.375702 
	C380.068146,230.235870 379.974609,230.833664 380.221344,231.205887 
	C385.462738,239.113281 390.640259,247.068253 396.149353,254.786163 
	C396.807648,255.708405 399.404999,255.748505 400.936646,255.419815 
	C402.902893,254.997864 404.739746,253.863892 406.562317,252.903732 
	C410.618561,250.766830 416.327057,251.668945 418.654053,246.210602 
	C418.956360,245.501480 420.632202,245.352005 421.689362,244.995377 
	C425.081451,243.851013 428.787170,243.247650 431.799225,241.466888 
	C435.316956,239.387177 438.037354,235.994644 441.466919,233.719162 
	C444.489594,231.713623 448.012360,230.461761 451.314270,228.877075 
	C457.445007,234.384796 463.575714,239.892517 469.497070,245.887268 
	C466.397064,250.188049 462.059753,251.428162 457.919189,253.318283 
	C450.979584,256.486145 444.483307,260.612061 437.717712,264.177765 
	C430.517517,267.972534 423.409973,272.057587 415.882050,275.064697 
	C412.447571,276.436646 406.928619,277.120178 404.432159,275.287140 
	C400.315765,272.264648 396.871063,267.340332 394.988190,262.499939 
	C392.324921,255.653503 387.543579,250.819458 382.591187,246.050217 
	C381.275696,244.783401 378.236664,245.306351 375.988983,245.007538 
z"/>
<path fill="#7EC943" opacity="1.000000" stroke="none" 
	d="
M376.016846,245.352615 
	C378.236664,245.306351 381.275696,244.783401 382.591187,246.050217 
	C387.543579,250.819458 392.324921,255.653503 394.988190,262.499939 
	C396.871063,267.340332 400.315765,272.264648 404.432159,275.287140 
	C406.928619,277.120178 412.447571,276.436646 415.882050,275.064697 
	C423.409973,272.057587 430.517517,267.972534 437.717712,264.177765 
	C444.483307,260.612061 450.979584,256.486145 457.919189,253.318283 
	C462.059753,251.428162 466.397064,250.188049 469.581604,246.209686 
	C472.375916,249.050400 474.876282,252.055756 477.165039,255.470444 
	C476.621399,256.084778 476.289337,256.289825 475.957245,256.494812 
	C476.810791,256.667114 477.664368,256.839417 478.517914,257.011719 
	C478.749084,257.298279 478.980286,257.584839 479.164032,258.534576 
	C479.752747,259.793518 480.388947,260.389282 481.025146,260.985016 
	C481.025146,260.985016 481.005188,260.996796 481.011841,260.984131 
	C481.304169,266.411560 478.581909,265.191223 475.080383,262.966553 
	C474.546936,263.732117 473.581696,264.497223 473.477753,265.365479 
	C472.698639,271.872772 467.878052,272.427338 462.825745,273.114105 
	C459.838501,273.520203 456.458893,273.801453 455.701447,278.003448 
	C455.554291,278.819824 453.820251,279.626556 452.682068,279.934387 
	C449.661499,280.751312 446.543701,281.205353 443.514008,281.993561 
	C442.506012,282.255829 440.939423,282.989441 440.836212,283.686432 
	C440.160339,288.250458 436.394470,288.021606 433.347626,288.695007 
	C429.266541,289.597015 424.826202,289.240784 423.155548,294.763885 
	C422.763123,296.061188 419.171082,296.672485 416.955750,297.075165 
	C412.900269,297.812317 409.313873,298.896881 408.596252,304.024475 
	C408.064484,304.037598 407.532715,304.050720 407.000977,304.063873 
	C405.220764,299.242706 403.338104,294.455750 401.710480,289.583649 
	C401.052673,287.614655 401.368744,285.267029 400.518188,283.425934 
	C398.196198,278.399719 395.488373,273.551788 392.935547,268.632111 
	C392.711273,268.199890 392.619202,267.595520 392.269623,267.347382 
	C387.210724,263.756683 382.966888,259.650482 383.532471,251.984116 
	C382.089203,253.542816 381.474060,254.207169 380.569336,254.927582 
	C380.279755,254.983612 379.984436,254.609344 379.970276,254.061554 
	C379.652466,253.013870 379.348846,252.513992 379.045197,252.014099 
	C379.045197,252.014099 378.829956,251.745941 378.864136,251.214706 
	C378.520599,250.148315 378.142853,249.613159 377.765137,249.078003 
	C377.765137,249.077988 377.405579,249.042862 377.227722,249.011292 
	C376.714813,247.885712 376.379791,246.791702 376.016846,245.352615 
M382.392426,249.590927 
	C382.034332,249.682770 381.676270,249.774628 381.318176,249.866486 
	C381.640747,249.913696 381.963318,249.960907 382.392426,249.590927 
z"/>
<path fill="#56B245" opacity="1.000000" stroke="none" 
	d="
M313.831146,425.453064 
	C317.341919,423.041077 321.095154,420.869720 325.339355,418.232117 
	C329.351013,415.221283 332.871704,412.676697 336.645905,409.996857 
	C337.599487,409.235046 338.299591,408.608490 339.288635,407.898071 
	C340.091187,407.224365 340.604706,406.634491 341.333557,405.993469 
	C341.838531,405.813293 342.027039,405.596344 342.419128,405.160767 
	C343.564240,404.095337 344.404572,403.160583 345.267395,402.226074 
	C345.289886,402.226288 345.324799,402.256195 345.628601,402.122101 
	C351.715240,395.089996 357.498108,388.192017 363.280945,381.294006 
	C363.280945,381.294006 363.254028,381.177704 363.484009,381.127747 
	C363.916992,380.748444 364.120026,380.419067 364.323059,380.089691 
	C368.060089,373.397491 371.797058,366.705292 375.870972,359.523926 
	C378.673920,352.909912 381.139923,346.785034 383.913147,340.698608 
	C386.496307,339.588745 388.772308,338.440399 391.048340,337.292053 
	C391.624329,341.781586 395.240021,346.432495 390.256226,350.436554 
	C393.397705,357.713684 390.318573,364.014801 387.811737,370.382416 
	C386.906769,372.681091 385.942139,374.956238 384.996399,377.621216 
	C382.756866,380.295807 379.706360,382.221924 378.469452,384.965637 
	C376.084930,390.254883 368.582611,391.312958 368.234161,398.043671 
	C368.201416,398.675781 367.187653,399.271301 366.603699,399.858246 
	C363.312256,403.166504 360.165802,406.639557 356.679230,409.728210 
	C351.850220,414.006104 346.834839,418.083679 341.765564,422.077301 
	C337.299713,425.595551 332.650299,428.880859 328.048340,432.619812 
	C323.367706,430.544983 318.720673,428.119324 313.831146,425.453064 
z"/>
<path fill="#90CF42" opacity="1.000000" stroke="none" 
	d="
M451.135773,228.576965 
	C448.012360,230.461761 444.489594,231.713623 441.466919,233.719162 
	C438.037354,235.994644 435.316956,239.387177 431.799225,241.466888 
	C428.787170,243.247650 425.081451,243.851013 421.689362,244.995377 
	C420.632202,245.352005 418.956360,245.501480 418.654053,246.210602 
	C416.327057,251.668945 410.618561,250.766830 406.562317,252.903732 
	C404.739746,253.863892 402.902893,254.997864 400.936646,255.419815 
	C399.404999,255.748505 396.807648,255.708405 396.149353,254.786163 
	C390.640259,247.068253 385.462738,239.113281 380.221344,231.205887 
	C379.974609,230.833664 380.068146,230.235870 380.333710,229.519714 
	C381.998627,229.964081 383.296600,230.721436 384.674469,231.282547 
	C388.579926,232.872971 397.809296,232.140900 398.692871,229.733200 
	C400.220184,225.571350 403.124481,225.200531 406.849792,224.814758 
	C409.608429,224.529099 414.027039,223.311691 414.536438,221.578049 
	C415.848877,217.111115 419.047241,216.982651 422.263794,216.051208 
	C423.245056,215.767029 424.090851,215.015121 424.998688,214.477417 
	C429.369446,216.276718 433.917389,217.745117 438.063110,219.964737 
	C442.556549,222.370514 446.675171,225.476318 451.135773,228.576965 
M442.296814,230.430817 
	C442.010620,230.703949 441.724426,230.977066 441.438232,231.250183 
	C441.551575,231.368561 441.757172,231.596191 441.764984,231.589600 
	C442.066803,231.334747 442.350525,231.058487 442.296814,230.430817 
z"/>
<path fill="#0097FF" opacity="1.000000" stroke="none" 
	d="
M120.704315,261.508057 
	C126.254936,267.589935 131.493469,273.906586 136.819733,280.148376 
	C137.275208,280.682098 138.297928,280.879578 139.084854,280.959076 
	C144.871231,281.543732 149.381180,284.521729 153.115967,288.688080 
	C155.868820,291.759033 158.415863,293.431915 162.471375,287.760345 
	C163.626968,292.199829 164.446655,295.348907 165.463501,299.150665 
	C163.520416,308.267365 166.835999,314.672791 173.247299,319.910156 
	C169.534241,319.265839 164.354492,319.906342 162.422913,317.701385 
	C158.752625,313.511627 154.349609,313.111847 149.800613,311.942566 
	C148.437759,311.592285 146.474731,310.544525 146.213425,309.469482 
	C145.120850,304.974426 142.291306,303.769684 138.119247,303.964233 
	C134.238937,304.145142 130.294647,304.873108 128.987045,299.070923 
	C128.653595,297.591248 124.132622,296.731262 121.430443,296.367157 
	C120.849800,296.288940 119.780411,299.572388 119.005646,301.337799 
	C118.716156,301.997406 118.625069,302.744110 117.494949,303.470856 
	C117.227150,301.673401 116.959343,299.875946 116.691544,298.078522 
	C116.362953,298.138153 116.034363,298.197815 115.705772,298.257477 
	C116.496246,302.885620 117.286720,307.513794 118.233131,313.054932 
	C116.609642,312.113922 115.851746,311.674622 114.741409,311.127808 
	C113.312668,297.721802 114.584930,284.618896 118.162071,271.471436 
	C119.388405,271.080780 120.119621,270.885498 120.850838,270.690247 
	C120.096069,270.121704 119.341316,269.553162 118.586563,268.984619 
	C119.196182,266.564087 119.805794,264.143585 120.704315,261.508057 
M163.703140,316.569458 
	C163.989334,316.296204 164.275513,316.022949 164.561707,315.749725 
	C164.448410,315.631256 164.242828,315.403595 164.235123,315.410095 
	C163.933304,315.665131 163.649490,315.941437 163.703140,316.569458 
M160.797455,294.390594 
	C160.793274,294.785400 160.789093,295.180237 160.784897,295.575043 
	C160.948730,295.576538 161.254959,295.589050 161.255814,295.577972 
	C161.286102,295.185089 161.287781,294.790039 160.797455,294.390594 
M163.821609,306.970459 
	C163.726395,306.564148 163.631195,306.157867 163.535980,305.751556 
	C163.415207,305.840637 163.182373,305.945190 163.192154,306.016235 
	C163.249054,306.428711 163.363022,306.833344 163.821609,306.970459 
z"/>
<path fill="#9CD143" opacity="1.000000" stroke="none" 
	d="
M424.693359,214.247589 
	C424.090851,215.015121 423.245056,215.767029 422.263794,216.051208 
	C419.047241,216.982651 415.848877,217.111115 414.536438,221.578049 
	C414.027039,223.311691 409.608429,224.529099 406.849792,224.814758 
	C403.124481,225.200531 400.220184,225.571350 398.692871,229.733200 
	C397.809296,232.140900 388.579926,232.872971 384.674469,231.282547 
	C383.296600,230.721436 381.998627,229.964081 380.329407,229.152283 
	C376.664551,226.120605 373.445648,223.090378 369.974548,220.383636 
	C366.164734,217.412766 362.160126,214.684723 358.164124,211.962860 
	C356.406311,210.765503 354.459839,209.845078 352.380493,208.576691 
	C357.136230,207.360504 362.069092,205.926010 367.092468,205.453522 
	C383.440613,203.915787 399.611572,204.983047 415.322784,210.150208 
	C418.432190,211.172852 421.370728,212.715118 424.693359,214.247589 
z"/>
<path fill="#0293FE" opacity="1.000000" stroke="none" 
	d="
M274.711487,435.898773 
	C276.386169,436.295624 277.772308,436.592468 279.511902,436.922058 
	C275.181915,437.748932 270.498474,438.543121 265.408691,439.287170 
	C268.142578,438.090942 271.282776,436.944855 274.711487,435.898773 
z"/>
<path fill="#03BAFD" opacity="1.000000" stroke="none" 
	d="
M248.997696,167.002319 
	C245.022675,167.402771 241.050354,167.800552 236.775391,167.862289 
	C236.472763,167.526260 236.540604,167.489883 236.882751,167.548157 
	C237.449905,167.286057 237.674911,166.965652 237.899902,166.645264 
	C241.304825,166.398361 244.709747,166.151459 248.558472,166.215271 
	C249.002258,166.525986 249.005051,166.994949 249.005051,166.994949 
	C249.005051,166.994949 249.000381,166.999619 248.997696,167.002319 
z"/>
<path fill="#028DFE" opacity="1.000000" stroke="none" 
	d="
M223.126801,437.147034 
	C224.653259,436.247894 226.316360,435.473022 227.979462,434.698181 
	C228.167572,435.314545 228.355682,435.930908 228.543793,436.547272 
	C227.182678,436.724670 225.821548,436.902069 224.041626,437.132507 
	C223.622803,437.185547 223.263458,437.271362 223.126801,437.147034 
z"/>
<path fill="#68C347" opacity="1.000000" stroke="none" 
	d="
M499.404572,333.770355 
	C499.180267,332.533722 499.153259,330.990112 499.398132,329.254028 
	C499.647278,330.528839 499.624573,331.996124 499.404572,333.770355 
z"/>
<path fill="#0293FE" opacity="1.000000" stroke="none" 
	d="
M281.414978,436.809875 
	C283.086212,436.188446 285.127502,435.587738 287.552032,434.983887 
	C285.885223,435.597321 283.835114,436.213928 281.414978,436.809875 
z"/>
<path fill="#01A9FF" opacity="1.000000" stroke="none" 
	d="
M179.526825,186.017212 
	C180.402954,186.345474 180.953308,186.744904 181.503677,187.144318 
	C180.482391,187.730927 179.461090,188.317551 178.079330,188.894135 
	C178.212921,187.952179 178.706985,187.020279 179.526825,186.017212 
z"/>
<path fill="#028DFE" opacity="1.000000" stroke="none" 
	d="
M118.000519,324.000000 
	C120.753601,324.809784 120.649765,326.166870 118.399261,327.933411 
	C118.009644,327.298981 117.962547,326.600708 117.948685,325.252014 
	C117.988106,324.401123 117.994308,324.200562 118.000519,324.000000 
z"/>
<path fill="#029EFE" opacity="1.000000" stroke="none" 
	d="
M118.388458,269.289795 
	C119.341316,269.553162 120.096069,270.121704 120.850838,270.690247 
	C120.119621,270.885498 119.388405,271.080780 118.366760,271.151855 
	C118.114342,270.550079 118.152351,270.072510 118.388458,269.289795 
z"/>
<path fill="#01B4FE" opacity="1.000000" stroke="none" 
	d="
M249.367310,166.996765 
	C249.005051,166.994949 249.002258,166.525986 249.002014,166.291519 
	C250.068253,165.994110 251.134720,165.931183 252.594086,165.957581 
	C251.901169,166.364120 250.815369,166.681351 249.367310,166.996765 
z"/>
<path fill="#75C745" opacity="1.000000" stroke="none" 
	d="
M480.994202,260.648682 
	C480.388947,260.389282 479.752747,259.793518 479.129028,258.818573 
	C479.748749,259.063690 480.356018,259.688019 480.994202,260.648682 
z"/>
<path fill="#75C745" opacity="1.000000" stroke="none" 
	d="
M478.493713,256.800354 
	C477.664368,256.839417 476.810791,256.667114 475.957245,256.494812 
	C476.289337,256.289825 476.621399,256.084778 477.258423,255.813873 
	C477.865417,256.028351 478.167480,256.308655 478.493713,256.800354 
z"/>
<path fill="#02ADFF" opacity="1.000000" stroke="none" 
	d="
M190.737885,180.195282 
	C190.557373,180.433701 190.099442,180.706467 189.366135,181.005127 
	C189.547333,180.763901 190.003906,180.496765 190.737885,180.195282 
z"/>
<path fill="#01B4FE" opacity="1.000000" stroke="none" 
	d="
M237.600754,166.645721 
	C237.674911,166.965652 237.449905,167.286057 236.918900,167.534912 
	C236.842453,167.190964 237.072037,166.918564 237.600754,166.645721 
z"/>
<path fill="#01B4FE" opacity="1.000000" stroke="none" 
	d="
M264.678772,166.485596 
	C264.618225,166.729996 264.335449,166.836441 263.997437,166.692871 
	C264.113678,166.411133 264.285126,166.379364 264.678772,166.485596 
z"/>
<path fill="#0293FE" opacity="1.000000" stroke="none" 
	d="
M289.333527,434.692352 
	C289.361389,434.515686 289.662323,434.328583 290.239014,434.128784 
	C290.212067,434.304688 289.909332,434.493317 289.333527,434.692352 
z"/>
<path fill="#68C347" opacity="1.000000" stroke="none" 
	d="
M499.692444,320.727966 
	C499.351349,320.799286 499.255371,320.574585 499.455139,320.181366 
	C499.554077,320.084534 499.740692,320.503693 499.692444,320.727966 
z"/>
<path fill="#0293FE" opacity="1.000000" stroke="none" 
	d="
M117.742607,323.999939 
	C117.994308,324.200562 117.988106,324.401123 117.950737,324.901978 
	C117.605309,324.994080 117.291054,324.785858 116.972839,324.288757 
	C117.140816,323.999878 117.312752,323.999878 117.742607,323.999939 
z"/>
<path fill="#029EFE" opacity="1.000000" stroke="none" 
	d="
M362.924377,381.167084 
	C357.498108,388.192017 351.715240,395.089996 345.534302,401.737732 
	C345.862000,399.346985 346.587830,397.206573 347.428772,394.726624 
	C346.953400,394.029663 345.575836,392.944183 345.591675,391.879456 
	C345.685272,385.599182 341.372437,384.870361 336.722870,384.392242 
	C335.737427,384.290863 334.595032,384.410736 333.802948,383.950378 
	C329.377747,381.378265 326.734741,376.244904 321.235962,375.183594 
	C321.341003,368.252045 316.467896,368.865906 311.886871,368.994080 
	C308.361877,369.092712 305.220825,369.586761 304.479492,364.160095 
	C304.181122,361.975922 299.665070,360.378662 297.101837,358.469635 
	C296.925690,358.338409 297.021393,357.833557 297.001923,357.501801 
	C296.804291,354.131531 294.807648,352.925903 291.673187,352.991486 
	C289.344482,353.040222 286.958435,353.293060 284.705048,352.876068 
	C283.382690,352.631409 281.288300,351.314301 281.229980,350.374756 
	C280.950897,345.878845 278.412964,345.228882 274.584076,344.816895 
	C271.653381,344.501556 268.764740,342.841949 266.097595,341.350586 
	C264.169678,340.272583 262.838898,337.743011 260.875275,337.209198 
	C258.401367,336.536682 257.670502,335.586090 256.748047,333.245544 
	C255.904282,331.104767 253.195786,328.510040 251.069168,328.273712 
	C242.753403,327.349579 241.601013,326.701599 240.505661,318.703766 
	C247.257446,323.014526 253.874573,322.902557 260.643555,319.831848 
	C263.114532,320.036102 265.585480,320.240387 268.356934,320.469513 
	C268.995117,318.237793 269.683716,315.829803 270.372284,313.421783 
	C269.978119,319.247314 273.249573,320.444611 277.862976,322.754181 
	C281.320404,324.485016 282.747589,330.655121 288.356506,331.065063 
	C289.713074,337.473297 296.057343,335.588562 299.811737,337.999878 
	C301.364105,338.996948 302.715088,340.335571 304.045746,341.633514 
	C304.475342,342.052551 304.373352,343.179657 304.810547,343.402710 
	C309.262878,345.674194 312.938324,349.026581 317.000000,351.817108 
	C319.279633,353.383240 322.675629,353.258545 325.485657,354.155701 
	C326.418427,354.453522 327.693329,355.493256 327.786835,356.311035 
	C328.380005,361.497040 331.781799,362.208832 336.031738,362.022736 
	C339.985596,361.849640 342.917847,361.723053 345.143738,366.990204 
	C346.790344,370.886566 353.510376,372.151642 356.315399,376.776001 
	C356.751740,377.495392 359.151733,377.023651 360.583221,377.099518 
	C361.257568,378.438507 361.912689,379.739349 362.924377,381.167084 
z"/>
<path fill="#01A9FF" opacity="1.000000" stroke="none" 
	d="
M383.605957,340.660156 
	C381.139923,346.785034 378.673920,352.909912 375.891541,359.139893 
	C374.359589,359.528229 373.150299,359.998962 371.926514,360.040344 
	C370.772125,360.079346 369.128845,360.080536 368.519073,359.382935 
	C365.364105,355.773682 363.180328,350.700684 359.313110,348.480499 
	C354.178314,345.532654 352.312225,338.004547 344.482361,338.710297 
	C340.631866,339.057312 337.307800,336.871796 335.298157,332.480438 
	C334.180573,330.038361 330.232391,328.891693 327.256042,326.964417 
	C326.122589,327.883118 324.898407,328.875336 323.674194,329.867554 
	C323.667511,329.466614 323.660797,329.065643 323.654083,328.664703 
	C321.029236,328.443085 318.404388,328.221497 315.389771,327.999939 
	C315.000000,328.000000 314.996338,327.996582 314.996338,327.996582 
	C314.674164,327.136017 314.352020,326.275452 313.936371,325.165161 
	C315.495148,325.079285 317.019409,324.995331 318.543640,324.911377 
	C318.496307,324.141144 318.448975,323.370941 318.615051,322.269592 
	C325.779663,321.947113 331.822937,319.415497 334.853088,313.191528 
	C336.729980,309.336365 336.456116,304.434113 337.147675,300.001862 
	C339.481842,304.066071 341.815979,308.130249 344.495392,312.795563 
	C345.800354,311.575775 347.364075,310.114105 349.453033,308.161499 
	C352.042816,315.424652 357.885162,317.041595 362.699646,316.256409 
	C369.202087,321.817505 374.449402,326.305176 379.696716,330.792847 
	C379.861969,332.719299 380.416992,334.629364 384.500122,334.350220 
	C384.490845,336.687531 384.048401,338.673859 383.605957,340.660156 
M339.074615,310.305756 
	C339.589081,310.569427 340.103546,310.833069 340.618011,311.096741 
	C340.614258,310.347321 340.610535,309.597900 340.606781,308.848480 
	C340.094757,309.117249 339.582733,309.386017 339.074615,310.305756 
z"/>
<path fill="#F8FCFD" opacity="1.000000" stroke="none" 
	d="
M337.023315,299.664185 
	C336.456116,304.434113 336.729980,309.336365 334.853088,313.191528 
	C331.822937,319.415497 325.779663,321.947113 318.414246,322.010559 
	C317.574646,321.959290 317.149231,321.835968 316.131226,321.548950 
	C314.695038,321.258545 313.851440,321.131805 313.007843,321.005066 
	C308.483002,318.119568 304.372711,314.870056 302.597717,308.790009 
	C302.234344,307.789032 302.078766,307.385345 301.923218,306.981628 
	C302.342987,303.294067 302.762787,299.606506 303.224091,295.502869 
	C307.374054,292.342438 311.482483,289.598083 315.854736,286.606628 
	C326.858704,285.780151 331.883270,288.915466 337.023315,299.664185 
z"/>
<path fill="#F8FCFD" opacity="1.000000" stroke="none" 
	d="
M260.845856,319.551727 
	C253.874573,322.902557 247.257446,323.014526 240.399567,318.496857 
	C239.710526,317.937744 239.432007,317.813843 239.102066,317.805450 
	C237.192566,313.275513 235.283081,308.745605 233.468063,303.543518 
	C233.705811,301.582581 233.849091,300.293823 233.992371,299.005035 
	C234.329926,298.222351 234.667496,297.439697 235.298004,296.184143 
	C236.070984,294.815857 236.551010,293.920410 237.031036,293.024963 
	C237.031036,293.024963 237.013748,293.005768 237.020508,293.017883 
	C243.125443,287.086304 250.258179,284.473389 258.340668,287.976532 
	C271.481537,293.672119 272.790863,311.305145 260.845856,319.551727 
z"/>
<path fill="#01A9FF" opacity="1.000000" stroke="none" 
	d="
M301.682861,306.772827 
	C302.078766,307.385345 302.234344,307.789032 302.392456,308.518616 
	C301.442291,310.628571 300.489624,312.412628 299.519989,314.228424 
	C296.962952,312.783142 296.969452,312.507416 300.538177,303.665741 
	C300.884979,304.777222 301.163727,305.670624 301.682861,306.772827 
z"/>
<path fill="#01A9FF" opacity="1.000000" stroke="none" 
	d="
M295.033203,303.329742 
	C296.073914,303.076263 297.147827,303.152557 298.749420,303.266296 
	C297.300659,306.089142 296.278961,306.568207 295.033203,303.329742 
z"/>
<path fill="#01A9FF" opacity="1.000000" stroke="none" 
	d="
M313.054871,321.339478 
	C313.851440,321.131805 314.695038,321.258545 315.798340,321.577118 
	C315.072662,321.737274 314.087280,321.705566 313.054871,321.339478 
z"/>
<path fill="#01A9FF" opacity="1.000000" stroke="none" 
	d="
M315.001038,328.001495 
	C314.653168,328.251190 314.304260,328.499420 313.955383,328.747620 
	C313.868347,328.624512 313.781281,328.501373 313.694214,328.378235 
	C313.968567,328.260651 314.242950,328.143036 314.756836,328.010986 
	C314.996338,327.996582 315.000000,328.000000 315.001038,328.001495 
z"/>
<path fill="#029EFE" opacity="1.000000" stroke="none" 
	d="
M235.993164,289.994904 
	C236.089783,289.961487 236.186417,289.928101 236.141510,289.947327 
	C236.000000,290.000000 235.993164,289.994904 235.993164,289.994904 
z"/>
<path fill="#029EFE" opacity="1.000000" stroke="none" 
	d="
M364.036407,380.166687 
	C364.120026,380.419067 363.916992,380.748444 363.426971,381.145416 
	C363.343231,380.889893 363.546509,380.566803 364.036407,380.166687 
z"/>
<path fill="#029EFE" opacity="1.000000" stroke="none" 
	d="
M234.995544,290.994141 
	C235.097519,290.669434 235.286423,290.410767 235.775467,290.103577 
	C235.993164,289.994904 236.000000,290.000000 236.002579,290.003357 
	C235.901306,290.326477 235.714371,290.586426 235.227997,290.897705 
	C235.011673,291.008789 235.000000,291.000000 234.995544,290.994141 
z"/>
<path fill="#75C745" opacity="1.000000" stroke="none" 
	d="
M379.041443,252.319473 
	C379.348846,252.513992 379.652466,253.013870 379.949890,253.824051 
	C379.641632,253.631180 379.339661,253.128006 379.041443,252.319473 
z"/>
<path fill="#75C745" opacity="1.000000" stroke="none" 
	d="
M377.831177,249.401138 
	C378.142853,249.613159 378.520599,250.148315 378.874023,251.043060 
	C378.532166,250.843185 378.214661,250.283737 377.831177,249.401138 
z"/>
<path fill="#02ADFF" opacity="1.000000" stroke="none" 
	d="
M385.467407,297.449738 
	C385.523041,297.416473 385.411774,297.483002 385.467407,297.449738 
z"/>
<path fill="#02A3FE" opacity="1.000000" stroke="none" 
	d="
M156.258179,208.644073 
	C156.008133,208.629318 155.871811,208.495438 155.735489,208.361572 
	C155.947632,208.416031 156.159760,208.470490 156.258179,208.644073 
z"/>
<path fill="#02A3FE" opacity="1.000000" stroke="none" 
	d="
M271.467224,289.449188 
	C271.523285,289.415619 271.411163,289.482758 271.467224,289.449188 
z"/>
<path fill="#0387FE" opacity="1.000000" stroke="none" 
	d="
M240.466858,436.449402 
	C240.522766,436.415955 240.410950,436.482849 240.466858,436.449402 
z"/>
<path fill="#F8FCFD" opacity="1.000000" stroke="none" 
	d="
M424.877869,331.336975 
	C423.193573,324.164856 424.579407,318.024445 430.315308,313.793152 
	C435.619659,309.880188 441.694336,309.530334 447.508850,312.912964 
	C449.563934,314.108521 451.109955,316.179169 453.148804,318.025208 
	C457.571686,330.032135 453.251648,339.366425 442.602783,341.549561 
	C435.349640,343.036560 429.049957,339.493622 424.877869,331.336975 
z"/>
<path fill="#F8FCFD" opacity="1.000000" stroke="none" 
	d="
M383.913147,340.698608 
	C384.048401,338.673859 384.490845,336.687531 384.886475,334.348816 
	C385.904175,327.260986 386.968719,320.525604 388.211395,313.515625 
	C395.695099,319.752899 397.027222,325.632202 392.677856,334.504150 
	C391.989197,335.817352 391.715240,336.624115 391.441284,337.430878 
	C391.441284,337.430878 391.260498,337.326904 391.154419,337.309479 
	C388.772308,338.440399 386.496307,339.588745 383.913147,340.698608 
z"/>
<path fill="#56B245" opacity="1.000000" stroke="none" 
	d="
M391.762207,337.548126 
	C391.715240,336.624115 391.989197,335.817352 392.568054,334.855774 
	C392.609680,335.689117 392.346375,336.677246 391.762207,337.548126 
z"/>
<path fill="#0097FF" opacity="1.000000" stroke="none" 
	d="
M336.392395,410.132080 
	C332.871704,412.676697 329.351013,415.221283 325.549500,417.942688 
	C321.701721,417.746368 318.037842,416.665497 314.586609,417.137939 
	C305.618652,418.365540 303.757874,407.939606 296.474548,406.713196 
	C296.449066,401.248505 291.812988,402.119720 288.642761,401.129211 
	C285.184265,400.048584 280.813049,400.524384 280.327972,395.152588 
	C280.259979,394.399689 278.640900,393.242004 277.706482,393.208832 
	C274.126190,393.081757 273.002411,391.111938 271.438171,388.101929 
	C270.441528,386.184174 266.144165,385.453156 263.236481,385.190704 
	C259.592102,384.861816 257.458954,383.953888 256.584045,379.994965 
	C256.296417,378.693390 253.439056,377.615112 251.572510,377.091461 
	C249.056290,376.385620 245.724472,377.171417 243.875122,375.795227 
	C239.878769,372.821381 235.841171,369.343567 233.296188,365.171661 
	C231.544235,362.299713 230.190338,361.024170 227.007843,360.946960 
	C222.507599,360.837738 217.533279,361.390350 216.215515,355.041595 
	C216.037033,354.181671 214.065582,353.782410 213.077545,352.980957 
	C211.652557,351.825043 209.604523,350.709900 209.180908,349.196960 
	C208.277039,345.968903 206.477402,344.985199 203.414917,344.966003 
	C198.693466,344.936401 193.552444,345.452362 192.278305,338.943542 
	C192.249771,338.797760 192.092712,338.573822 191.978714,338.562927 
	C186.465332,338.035431 184.479782,332.942749 180.919128,329.917969 
	C179.412933,328.638458 178.426071,326.747620 177.589691,325.644470 
	C179.405914,324.630890 180.803619,323.850861 182.581604,322.669830 
	C186.181381,321.451691 189.400879,320.634552 193.010162,319.985168 
	C195.599777,320.434906 197.799576,320.716827 200.287384,321.218201 
	C201.746353,325.957794 203.908081,328.630035 209.342087,328.455414 
	C212.910065,328.340759 217.552292,328.622803 217.831711,334.343781 
	C217.859711,334.917267 219.222900,335.500244 220.038315,335.947906 
	C223.998154,338.121826 228.399811,339.739044 231.839386,342.541962 
	C235.199478,345.280182 241.951279,343.899475 242.118835,350.738251 
	C242.129868,351.188660 244.358307,351.498444 245.485107,352.024170 
	C248.679993,353.514709 251.875809,355.012146 254.997269,356.648041 
	C256.872223,357.630737 258.683350,358.776245 260.387970,360.032074 
	C262.325684,361.459534 264.117310,363.085999 265.963562,364.636566 
	C267.285889,365.747162 268.432678,367.257629 269.949707,367.895782 
	C271.720764,368.640808 273.868164,368.431274 275.749329,368.985474 
	C281.805481,370.769501 285.179443,376.235138 289.504639,380.145813 
	C291.296112,381.765594 291.987640,383.890442 295.057068,384.122711 
	C298.233307,384.363037 303.863770,385.155548 304.045349,386.363953 
	C304.900696,392.056488 309.627350,391.575073 312.886475,393.516449 
	C316.243774,395.516296 319.056610,399.129578 322.595062,399.959900 
	C327.733612,401.165649 330.022949,403.364624 329.177551,408.421112 
	C331.914307,409.070129 334.153381,409.601105 336.392395,410.132080 
M186.296524,326.431488 
	C186.010559,326.704407 185.724609,326.977295 185.438660,327.250214 
	C185.551865,327.368500 185.757217,327.595917 185.764954,327.589355 
	C186.066559,327.334686 186.350143,327.058655 186.296524,326.431488 
z"/>
<path fill="#F8FCFD" opacity="1.000000" stroke="none" 
	d="
M192.620377,319.817413 
	C189.400879,320.634552 186.181381,321.451691 182.564423,322.338379 
	C179.408752,321.605286 176.650528,320.802673 173.569794,319.955109 
	C166.835999,314.672791 163.520416,308.267365 165.683472,299.405579 
	C168.514709,295.673981 170.833984,291.678192 174.243973,289.158508 
	C179.621033,285.185303 190.344986,286.043121 194.971451,290.578979 
	C197.036377,292.603455 197.817245,295.937683 199.519440,299.276855 
	C200.197556,302.102112 200.537094,304.328003 200.659332,306.851013 
	C200.294174,308.098785 200.146332,309.049530 199.878571,310.129578 
	C199.758667,310.258942 199.819931,310.606354 199.576660,310.869049 
	C197.095734,314.026978 194.858047,316.922180 192.620377,319.817413 
z"/>
<path fill="#028DFE" opacity="1.000000" stroke="none" 
	d="
M278.917419,434.308136 
	C279.470001,434.276031 279.861938,434.404114 280.253845,434.532227 
	C280.146790,434.639221 280.015961,434.852814 279.936615,434.835144 
	C279.535950,434.745972 279.148712,434.596619 278.917419,434.308136 
z"/>
<path fill="#0293FE" opacity="1.000000" stroke="none" 
	d="
M287.467468,433.449585 
	C287.523132,433.416351 287.411774,433.482819 287.467468,433.449585 
z"/>
<path fill="#009BFF" opacity="1.000000" stroke="none" 
	d="
M199.819931,310.606354 
	C199.819931,310.606354 199.758667,310.258942 200.160004,309.885742 
	C200.666428,308.526367 200.771545,307.540131 200.876648,306.553925 
	C200.537094,304.328003 200.197556,302.102112 199.797424,299.496216 
	C206.287125,295.909882 206.261612,295.920105 209.036667,302.835052 
	C209.357422,303.634308 210.130539,304.823303 210.733826,304.847778 
	C215.717545,305.049988 216.651474,308.785828 217.416290,312.191772 
	C222.677719,315.416565 232.075027,308.098541 233.600723,320.328644 
	C235.449554,319.670837 237.096329,319.084930 238.922577,318.152252 
	C239.432007,317.813843 239.710526,317.937744 240.043732,318.384064 
	C241.601013,326.701599 242.753403,327.349579 251.069168,328.273712 
	C253.195786,328.510040 255.904282,331.104767 256.748047,333.245544 
	C257.670502,335.586090 258.401367,336.536682 260.875275,337.209198 
	C262.838898,337.743011 264.169678,340.272583 266.097595,341.350586 
	C268.764740,342.841949 271.653381,344.501556 274.584076,344.816895 
	C278.412964,345.228882 280.950897,345.878845 281.229980,350.374756 
	C281.288300,351.314301 283.382690,352.631409 284.705048,352.876068 
	C286.958435,353.293060 289.344482,353.040222 291.673187,352.991486 
	C294.807648,352.925903 296.804291,354.131531 297.001923,357.501801 
	C297.021393,357.833557 296.925690,358.338409 297.101837,358.469635 
	C299.665070,360.378662 304.181122,361.975922 304.479492,364.160095 
	C305.220825,369.586761 308.361877,369.092712 311.886871,368.994080 
	C316.467896,368.865906 321.341003,368.252045 321.235962,375.183594 
	C326.734741,376.244904 329.377747,381.378265 333.802948,383.950378 
	C334.595032,384.410736 335.737427,384.290863 336.722870,384.392242 
	C341.372437,384.870361 345.685272,385.599182 345.591675,391.879456 
	C345.575836,392.944183 346.953400,394.029663 347.428772,394.726624 
	C346.587830,397.206573 345.862000,399.346985 345.230499,401.871826 
	C345.324799,402.256195 345.289886,402.226288 344.910583,402.131409 
	C343.556244,401.792175 342.581238,401.547852 341.194092,401.200287 
	C341.584106,402.934143 341.849243,404.112823 342.114380,405.291473 
	C342.027039,405.596344 341.838531,405.813293 341.001587,406.014771 
	C339.969452,406.718781 339.484558,407.350372 338.999695,407.981934 
	C338.299591,408.608490 337.599487,409.235046 336.645935,409.996887 
	C334.153381,409.601105 331.914307,409.070129 329.177551,408.421112 
	C330.022949,403.364624 327.733612,401.165649 322.595062,399.959900 
	C319.056610,399.129578 316.243774,395.516296 312.886475,393.516449 
	C309.627350,391.575073 304.900696,392.056488 304.045349,386.363953 
	C303.863770,385.155548 298.233307,384.363037 295.057068,384.122711 
	C291.987640,383.890442 291.296112,381.765594 289.504639,380.145813 
	C285.179443,376.235138 281.805481,370.769501 275.749329,368.985474 
	C273.868164,368.431274 271.720764,368.640808 269.949707,367.895782 
	C268.432678,367.257629 267.285889,365.747162 265.963562,364.636566 
	C264.117310,363.085999 262.325684,361.459534 260.387970,360.032074 
	C258.683350,358.776245 256.872223,357.630737 254.997269,356.648041 
	C251.875809,355.012146 248.679993,353.514709 245.485107,352.024170 
	C244.358307,351.498444 242.129868,351.188660 242.118835,350.738251 
	C241.951279,343.899475 235.199478,345.280182 231.839386,342.541962 
	C228.399811,339.739044 223.998154,338.121826 220.038315,335.947906 
	C219.222900,335.500244 217.859711,334.917267 217.831711,334.343781 
	C217.552292,328.622803 212.910065,328.340759 209.342087,328.455414 
	C203.908081,328.630035 201.746353,325.957794 200.288727,320.806641 
	C199.941360,316.985901 199.880646,313.796143 199.819931,310.606354 
M337.754852,402.824982 
	C337.588043,402.880280 337.421234,402.935608 337.254425,402.990906 
	C337.422272,403.044830 337.590118,403.098785 337.754852,402.824982 
z"/>
<path fill="#02A3FE" opacity="1.000000" stroke="none" 
	d="
M236.639572,293.016602 
	C236.551010,293.920410 236.070984,294.815857 235.322815,295.862946 
	C234.098267,295.555481 233.141861,295.096375 232.185440,294.637268 
	C232.221085,294.248810 232.256714,293.860352 232.292358,293.471893 
	C233.610947,293.317352 234.929535,293.162811 236.639572,293.016602 
z"/>
<path fill="#02A3FE" opacity="1.000000" stroke="none" 
	d="
M233.703857,299.272339 
	C233.849091,300.293823 233.705811,301.582581 233.332550,303.199432 
	C233.206818,302.198212 233.311081,300.868896 233.703857,299.272339 
z"/>
<path fill="#01B4FE" opacity="1.000000" stroke="none" 
	d="
M258.257568,167.643951 
	C258.008087,167.629196 257.872131,167.495819 257.736145,167.362457 
	C257.947815,167.416748 258.159454,167.471039 258.257568,167.643951 
z"/>
<path fill="#75C745" opacity="1.000000" stroke="none" 
	d="
M382.339172,249.799530 
	C381.963318,249.960907 381.640747,249.913696 381.318176,249.866486 
	C381.676270,249.774628 382.034332,249.682770 382.339172,249.799530 
z"/>
<path fill="#029EFE" opacity="1.000000" stroke="none" 
	d="
M342.419128,405.160767 
	C341.849243,404.112823 341.584106,402.934143 341.194092,401.200287 
	C342.581238,401.547852 343.556244,401.792175 344.888092,402.131165 
	C344.404572,403.160583 343.564240,404.095337 342.419128,405.160767 
z"/>
<path fill="#029EFE" opacity="1.000000" stroke="none" 
	d="
M339.288666,407.898071 
	C339.484558,407.350372 339.969452,406.718781 340.786285,406.065918 
	C340.604706,406.634491 340.091187,407.224365 339.288666,407.898071 
z"/>
<path fill="#86CC44" opacity="1.000000" stroke="none" 
	d="
M442.466736,230.607941 
	C442.350525,231.058487 442.066803,231.334747 441.764984,231.589600 
	C441.757172,231.596191 441.551575,231.368561 441.438232,231.250183 
	C441.724426,230.977066 442.010620,230.703949 442.466736,230.607941 
z"/>
<path fill="#0293FE" opacity="1.000000" stroke="none" 
	d="
M163.533234,316.392212 
	C163.649490,315.941437 163.933304,315.665131 164.235123,315.410095 
	C164.242828,315.403595 164.448410,315.631256 164.561707,315.749725 
	C164.275513,316.022949 163.989334,316.296204 163.533234,316.392212 
z"/>
<path fill="#029EFE" opacity="1.000000" stroke="none" 
	d="
M161.045471,294.392944 
	C161.287781,294.790039 161.286102,295.185089 161.255814,295.577972 
	C161.254959,295.589050 160.948730,295.576538 160.784912,295.575043 
	C160.789093,295.180237 160.793274,294.785400 161.045471,294.392944 
z"/>
<path fill="#0293FE" opacity="1.000000" stroke="none" 
	d="
M163.639648,307.105530 
	C163.363022,306.833344 163.249054,306.428711 163.192154,306.016235 
	C163.182373,305.945190 163.415207,305.840637 163.535980,305.751556 
	C163.631195,306.157867 163.726395,306.564148 163.639648,307.105530 
z"/>
<path fill="#02ADFF" opacity="1.000000" stroke="none" 
	d="
M339.072632,309.980286 
	C339.582733,309.386017 340.094757,309.117249 340.606781,308.848480 
	C340.610535,309.597900 340.614258,310.347321 340.618011,311.096741 
	C340.103546,310.833069 339.589081,310.569427 339.072632,309.980286 
z"/>
<path fill="#029EFE" opacity="1.000000" stroke="none" 
	d="
M199.576660,310.869049 
	C199.880646,313.796143 199.941360,316.985901 200.000732,320.587219 
	C197.799576,320.716827 195.599777,320.434906 193.010162,319.985168 
	C194.858047,316.922180 197.095734,314.026978 199.576660,310.869049 
z"/>
<path fill="#0293FE" opacity="1.000000" stroke="none" 
	d="
M186.466309,326.608459 
	C186.350143,327.058655 186.066559,327.334686 185.764954,327.589355 
	C185.757217,327.595917 185.551865,327.368500 185.438660,327.250183 
	C185.724609,326.977295 186.010559,326.704407 186.466309,326.608459 
z"/>
<path fill="#029EFE" opacity="1.000000" stroke="none" 
	d="
M200.659332,306.851013 
	C200.771545,307.540131 200.666428,308.526367 200.279907,309.756409 
	C200.146332,309.049530 200.294174,308.098785 200.659332,306.851013 
z"/>
<path fill="#029EFE" opacity="1.000000" stroke="none" 
	d="
M337.756409,402.988861 
	C337.590118,403.098785 337.422272,403.044830 337.254425,402.990906 
	C337.421234,402.935608 337.588043,402.880280 337.756409,402.988861 
z"/>
</svg>